<?xml version="1.0" encoding="utf-8"?>
<!-- Generator: Adobe Illustrator 26.3.1, SVG Export Plug-In . SVG Version: 6.00 Build 0)  -->
<svg version="1.1" id="Camada_1" xmlns="http://www.w3.org/2000/svg" xmlns:xlink="http://www.w3.org/1999/xlink" x="0px" y="0px"
	 viewBox="0 0 595.3 841.9" style="enable-background:new 0 0 595.3 841.9;" xml:space="preserve">
<style type="text/css">
	.st0{fill:#FFFFFF;}
</style>
<g>
	<path class="st0" d="M313.1,162.3c7.1,0,19.6-0.3,32,0.1c13.1,0.4,26.3,1,39.4,1.9c10.3,0.7,20.6,1.4,30.9,2.3
		c16,1.4,31.9,3.5,47.7,6c14.3,2.3,28.5,5.1,42.5,8.8c14.9,4,27.1,11.9,35.4,25.1c5,7.9,7.4,16.7,9.4,25.7
		c4.2,19.3,7.3,38.8,9.8,58.4c1.9,15.2,3.4,30.5,4.6,45.8c0.8,10.5,1.1,21,1.7,31.4c1.6,25.9,1,51.9,1,77.9c0,16.1-1,32.3-1.9,48.4
		c-0.7,12.5-1.7,25-2.9,37.4c-1.4,14-3,28-5.2,42c-2.3,14.7-4.9,29.4-8.5,43.9c-3.7,15.4-11.4,28.1-25,36.7
		c-7.7,4.9-16.3,7.6-25.1,9.7c-20.5,4.9-41.2,8.1-62,10.7c-12.8,1.6-25.6,2.7-38.4,3.7c-12,1-24.1,1.5-36.2,2.1
		c-28,1.4-56,1.1-84,0.8c-14.8-0.1-29.6-0.8-44.4-1.8c-12.3-0.8-24.6-1.7-36.9-2.9c-23.3-2.3-46.4-5.3-69.3-10.3
		c-9-2-18.1-3.7-26.8-7.4c-17-7.2-27.7-19.9-32.7-37.3c-4.3-14.8-6.7-29.9-9.1-45.1c-2.1-13.1-3.7-26.2-5.1-39.3
		c-0.9-8.6-1.7-17.2-2.3-25.8c-1-13.2-1.8-26.4-2.5-39.6c-0.3-6.3-0.5-12.5-0.6-18.8c-0.2-21.2-0.3-42.4,0-63.6
		c0.2-13,0.8-25.9,1.9-38.8c0.7-8.7,1-17.4,1.8-26.1c0.8-9,1.7-18.1,2.8-27.1c1.6-12.3,3.2-24.7,5.2-36.9
		c2.1-13.1,4.3-26.2,8.2-38.8c6.9-22.8,23-35.6,45.7-41.1c17.5-4.2,35.2-7.5,53-9.9c12-1.6,24-2.8,36-4c13.8-1.3,27.6-2.2,41.4-3
		C265.5,162.2,286.6,161.9,313.1,162.3z M339,558.7c0,2.9,0.1,5.8,0,8.7c-0.1,2.4,0.9,3.2,3.3,3.2c10-0.1,20,0,29.9,0
		c3.5,0,3.7-0.2,3.7-3.8c-0.1-7.9-0.1-15.8-0.3-23.8c-0.3-18.2-0.1-36.4-0.1-54.6c0-4.6-0.4-9.1-1.6-13.6
		c-5.6-22.1-20.6-34.5-43-37.8c-7.8-1.1-15.6-1.1-23.5-0.7c-13.3,0.7-26,3.3-38.5,7.7c-1.4,0.5-2.1,1.2-2.2,2.9
		c-0.3,8.9-0.6,17.8,0,26.7c0.1,2.1,0.5,2.6,2.6,1.9c11-3.9,22.1-7.4,33.9-8c7.5-0.4,15-0.9,22.2,1.8c7.5,2.9,11.4,8.6,12.9,16.2
		c0.3,1.8-0.2,2.5-2.2,2.5c-7.8,0-15.5-0.4-23.3,0.4c-11.5,1.3-22.6,3.8-32.7,9.9c-7,4.2-12.7,9.6-16.2,17
		c-3.4,7.2-4.1,14.7-3.6,22.7c0.9,16.3,13.6,29.8,28.7,33.8c6.6,1.8,13.3,1.3,20,1.5c6.7,0.1,12.8-1.9,18.5-5.4
		C331.7,565.3,335,562,339,558.7z M472.6,558c0.3,3.2,1.2,6.1,1,9.1c-0.2,2.4,0.9,3.2,3,3.3c1.1,0.1,2.1,0.1,3.2,0.1
		c9.2,0,18.4,0,27.6,0c3.9,0,3.9,0,3.9-4c0-41.1,0-82.1,0-123.2c0-3.9-0.1-4.1-4-4.1c-10.4,0-20.8,0-31.3,0c-4,0-3.9,0.1-4,4
		c-0.3,26.3,0.5,52.6-0.5,78.9c-0.3,7.6-5.4,15.7-12,18.3c-13.5,5.2-25.7-2.9-26.1-17.7c-0.3-14.4-0.5-28.8,0.1-43.2
		c0.5-12,0.1-24,0.1-36c0-3.8-0.5-4.3-4.3-4.3c-10.5,0-21,0-31.5,0c-3.9,0-4.2,0.2-4.1,4.3c0.2,15.7-0.1,31.4,0.4,47.1
		c0.4,11.9,0.2,23.8,0,35.8c-0.1,6,1,11.8,2.8,17.4c3.6,11.6,10.7,20.3,21.7,25.8c7,3.5,14.6,3.6,22.2,3.7
		c10.6,0.1,19.5-3.3,27.1-10.5C469.5,561.3,471,559.6,472.6,558z M215.9,498.3C215.9,498.3,215.9,498.3,215.9,498.3
		c0-8.6,0.1-17.1-0.1-25.7c0-2.6,0.9-3.4,3.4-3.3c8.7,0.1,17.3-0.1,26,0.1c2.8,0.1,3.5-1,3.5-3.5c-0.1-7.5,0-15,0-22.5
		c0-3.8-0.2-4-4.1-4.1c-8.4,0-16.8,0-25.2,0c-3.3,0-3.5-0.3-3.5-3.5c0-10.1,0-20.1,0-30.2c0-5.9-0.2-6-6-4.9
		c-10.1,1.9-20.3,3.8-30.5,5.4c-2.1,0.4-2.8,1.1-2.8,3.2c0.1,8.9,0,17.8,0.1,26.8c0,2.4-0.8,3.3-3.3,3.3c-4.3-0.1-8.7,0-13,0
		c-2.1,0-2.9,0.8-2.9,3c0.1,8,0.1,16.1,0,24.1c0,2.4,0.8,3,3.1,3c4.1-0.1,8.1,0,12.2,0c3.7,0,3.8,0.1,3.8,3.9
		c0,17.3,0,34.6,0.1,51.9c0,5.4,0.3,10.7,1.5,16c3.7,16.1,15.1,27.4,30.4,30.4c11.7,2.3,23.3,1.4,35-0.4c2.4-0.4,3.4-1.4,3.3-3.8
		c-0.1-7.8,0-15.5,0-23.3c0-3.2-0.6-3.8-3.6-3c-4.4,1.2-8.8,0.9-13.2,0.8c-6.4-0.1-12.3-4.8-13.5-10.8c-0.5-2.8-0.7-5.8-0.7-8.7
		C215.9,514.3,215.9,506.3,215.9,498.3z M143.8,504.9c0-20.8,0-41.5,0.1-62.3c0-2.5-0.8-3.4-3.3-3.4c-10.9,0.1-21.7,0.1-32.6,0
		c-2.6,0-3.5,1-3.4,3.6c0.1,41.4,0.1,82.9,0,124.3c0,2.7,0.8,3.5,3.5,3.5c10.7-0.1,21.4,0,32.1-0.1c3.7,0,3.7,0,3.7-3.9
		C143.8,546,143.8,525.5,143.8,504.9z M454.2,422.6c9.9,0,19.8,0,29.6,0c2,0,2.9-0.7,2.9-2.7c0-9.5,0-19.1,0-28.6
		c0-2.3-1-2.8-3.2-2.5c-19.6,3.5-39.2,7-58.8,10.3c-2,0.3-2.7,1.2-2.6,3.1c0.1,5.7,0.1,11.5,0,17.2c-0.1,2.5,0.9,3.2,3.2,3.1
		C435,422.5,444.6,422.6,454.2,422.6z M147,404.2c1.1-11.2-8.1-22.6-23.6-22.4c-13.4,0.2-22,10.8-22.2,21.8
		c-0.2,12.5,9.5,22.7,22.8,22.8C137.6,426.5,148.1,415.7,147,404.2z"/>
	<path class="st0" d="M338.4,520.7c0.5,5.5-0.5,10.5-3.6,15.1c-3.9,5.9-9.4,9.1-16.6,9.2c-4.4,0.1-8.7,0.2-12.9-2
		c-9.3-4.9-10.3-19.1-1.5-25c6.2-4.1,13.3-5.6,20.6-5.9c3.6-0.2,7.2,0,10.9,0c2.2,0,3.3,0.9,3.1,3.2
		C338.3,517.2,338.4,519,338.4,520.7z"/>
</g>
</svg>
