<?xml version="1.0" encoding="utf-8"?>
<!-- Generator: Adobe Illustrator 26.3.1, SVG Export Plug-In . SVG Version: 6.00 Build 0)  -->
<svg version="1.1" id="Camada_1" xmlns="http://www.w3.org/2000/svg" xmlns:xlink="http://www.w3.org/1999/xlink" x="0px" y="0px"
	 viewBox="0 0 556 178" style="enable-background:new 0 0 556 178;" xml:space="preserve">
<style type="text/css">
	.st0{fill:#5AD7F6;}
	.st1{fill:#F97BD1;}
	.st2{fill:#CC1AFF;}
</style>
<g id="Camada_1_00000162344694009633033260000016637327863633505422_">
	<g>
		<path class="st0" d="M139.1,103.7c1.8-0.6,3.4-1.3,5.1-2c2.7-1.1,5.5-2.2,8.2-3.3c2.8-1.1,5.6-2.3,8.3-3.4c3.3-1.3,6.5-2.7,9.8-4
			c4.5-1.8,9-3.7,13.5-5.5c2.5-1,5-2,7.5-3c0,0.7,0,1.4-0.2,2c-0.3,1.1-0.9,2-2.1,2.5c-0.9,0.4-2.1,0.7-2.1,2.1
			c0,0.2-0.2,0.3-0.4,0.4c-0.2,0.1-0.4,0.1-0.6,0.2c-0.4,0.2-0.4,0.6,0,0.7c0.4,0.2,0.8,0.4,1.1,0.7c0.6,0.6,0.5,1.3-0.3,1.6
			c-0.5,0.2-1.2,0.3-1.5,0.9c0.3,0.2,0.6,0,0.9-0.1c0.4-0.1,0.7-0.3,1.1-0.4c0.8-0.2,0.8-0.2,0.7,0.6c-0.1,0.4,0.1,0.7,0.3,1.1
			c0.3,0.7,0.6,1.4,0.1,2.1c0.3,1.2-0.7,1.6-1.4,2.1c-0.8,0.6-1.5,1.2-2.4,1.7c-0.9,0.5-1,0.9-0.4,1.7c0.2,0.3,0.4,0.6,0.5,1
			c0.3,1.4-0.1,1.8-1.5,1.7c-0.7,0-1.5-0.2-1.7,0.8c-0.3,0-0.4-0.2-0.5-0.3c-0.3-0.3-0.5-0.2-0.6,0.2c0,0.1,0,0.2,0,0.3
			c0,0.3-0.1,0.6-0.5,0.5c-0.4,0-0.6-0.3-0.5-0.6c0.3-0.9-0.3-1.4-0.8-1.9c-0.5-0.6-1.3-0.8-2.1-0.6c-1.2,0.3-2.4,0.5-3.6,0.7
			c-1.2,0.2-2.2,0.8-3.2,1.6c0.3,0.4,0.8-0.1,1.1,0.2c-0.8,0.8-2,0.8-3.1,1.4c1.2,0.4,2.4,0.6,3.4,1.4c-0.1,0.5-0.4,0.6-0.7,0.9
			c-0.8,0.7-1.6,1.2-2.1,2.2c-0.2,0.5-0.9,0.4-1.3,0.9c1.2,0.6,2.5-0.1,3.7,0.1c-0.3,0.5-0.7,0.4-1.1,0.5c-0.4,0.1-0.6,0.3-0.6,0.7
			c0,0.3,0.1,0.6,0.5,0.7c0.4,0.1,0.8,0.1,0.9-0.4c0.3-0.9,1.1-0.9,1.8-1.1c0.4-0.1,0.7,0.1,0.7,0.5c0,0.4,0.1,0.8-0.5,0.9
			c-0.9,0.1-1.8,0.5-2.6,1c-0.2,0.1-0.5,0.2-0.5,0.6c0.1,0.3,0.4,0.2,0.6,0.2c0.5,0,0.5,0.3,0.4,0.7c-0.2,0.8-0.5,1.1-1.4,1
			c-0.9,0-1.7,0.3-2.4,0.9c-0.8,0.7-1.7,0.9-2.6,1.3c-0.2,0.1-0.4,0.1-0.5,0c-0.2-0.2-0.1-0.5,0.1-0.7c0.4-0.3,0.9-0.6,1.4-0.9
			c0.8-0.5,1.6-0.9,2.3-1.3c0.1-0.1,0.3-0.2,0.4-0.4c-0.1,0-0.1-0.1-0.1-0.1c-1,0.4-2,0.4-3,0.8c-0.3,0.1-0.3,0-0.4-0.1
			c-0.5-0.4-0.9-0.3-1,0.3c-0.1,0.2-0.1,0.5-0.1,0.7c0.1,0.9-0.3,1.5-1.1,1.8l0,0c-0.1-0.3,0.2-0.5,0.2-0.7
			c-0.1-0.2-0.3-0.1-0.5-0.1c-0.8,0.1-1.6-0.2-2-0.9c-0.2-0.3-0.1-0.6,0.2-0.8c0.4-0.4,0.7-0.7,1.2-1.2c-0.9,0-1.6,0.1-2.2,0.4
			c-1.1,0.6-2.3,1-3.4,1.8c-0.9,0.6-1.9,1.1-2.9,1.3c-0.4,0.1-0.6,0.3-0.8,0.7c-0.6,1.2-1.5,1.9-2.9,1.9c-0.2,0-0.3,0.1-0.4,0.3
			c-0.1,0.3,0,0.5,0.3,0.5c0.4,0,0.8,0,1.2-0.3c0.2-0.2,0.5-0.3,0.8-0.4c0.2,0,0.5,0,0.6,0.2c0.1,0.2,0,0.5-0.2,0.6
			c-0.2,0.1-0.5,0.2-0.7,0.3c-1.9,0.7-2.3,1.7-1.8,3.3c0.2,0.6,0,0.9-0.6,1.1c-0.8,0.2-1.4,0.8-2.3,1c-0.2,0-0.4,0.1-0.6-0.1
			c0.3-0.5,0.8-0.7,1.3-1c0.3-0.2,0.6-0.3,0.7-0.7c0.1,0,0.1-0.1,0.1-0.1s-0.1,0-0.1,0.1c-1,0.2-1.8,0.6-2.8,1
			c-1.2,0.4-2.3,0.9-3.4,1.4c-0.4,0.2-0.8,0.4-1.2,0.7c-0.4,0.2-0.5,0.6-0.3,1.1c0.2,0.6,0.1,1-0.5,1.3c-1.1,0.5-2.3,0.9-3.4,1.4
			c-0.1,0-0.2,0-0.3,0c-0.2-0.1-0.1-0.3-0.1-0.4c0.1-0.3,0.3-0.5,0.5-0.9c-1.6,0.2-3.1,0.2-4.3,1.3c-0.4,0.4-0.7,0.8-0.6,1.4
			c0.1,0.5-0.2,0.9-0.7,0.9c-1.4,0-2.5,0.8-3.7,1.5c-0.6,0.4-1.2,0.6-1.9,0.4c-0.6-0.1-1.1,0.4-1.8,0.6c0.3-1-0.1-1.9,0.2-2.9
			c0.5-1.3,0.9-2.7,1.2-4.1c0.5-2.2,1.4-4.4,2.4-6.6c-1.3-0.4-2.6-0.4-3.8-0.8c-1.3-0.4-2.6-0.7-3.8-1.3c-1.2-0.5-2.3-1.1-3.6-2
			c1.1,0,1.9,0.3,2.7,0.6c1.4,0.4,2.9,0.8,4.4,0.9c1.5,0.1,3-0.2,4.3-1c0.4-0.2,0.7-0.4,1.1-0.6c1.1-0.7,2-1.4,2.6-2.6
			c0.6-1.3,1.6-2.3,2.5-3.5c1.6-2.1,2.8-4.5,3.9-6.8C137.7,106.8,138.4,105.2,139.1,103.7z"/>
		<path class="st0" d="M35.8,145.6c0.5,0.1,0.9,0,1.3-0.2c3.6-1.5,7.2-3,10.8-4.5c2.7-1.1,5.5-2.2,8.2-3.3c4.3-1.8,8.6-3.5,12.9-5.3
			c2.4-1,4.9-1.9,7.3-3c1.6-0.7,3.2-1.3,4.8-1.9c0.2-0.1,0.5-0.1,0.8-0.2c-0.4,1.6-0.8,3.1-1.2,4.7c-1,3.7-2,7.5-3.1,11.2
			c-0.8,2.7-1.4,5.4-2.1,8.1c-0.1,0.5-0.4,0.8-0.8,1c-1.6,0.5-2.8,1.5-3.9,2.6c-0.6,0.6-1.4,1-2.2,1.2c-1.1,0.3-2.1,0.9-3,1.5
			c-3.5,2.2-6.8,4.5-10.4,6.5c-0.7,0.4-1.4,0.8-2,1.3c-0.6,0.5-1.2,0.9-1.9,1.2c-0.9,0.5-1.8,1.1-2.7,0.2c-0.1,0.1-0.2,0.2-0.2,0.2
			c0.4,0.9,0.3,1.3-0.5,1.7c-0.3,0.1-0.6,0.3-0.8,0.3c-0.9-0.2-1.4,0.2-1.9,0.9c-0.5,0.6-1.2,0.8-1.8,1.1c-0.2,0.1-0.4,0-0.4-0.2
			c0-0.2,0-0.3,0.2-0.4c0.9-0.3,1.3-1.1,1.9-1.9c0.5-0.8,1.3-1.2,2.2-1.5c0.3-0.1,0.8,0,0.8-0.5c0-0.4-0.2-0.5-1-0.7
			c-0.2-0.3,0.2-0.5,0.3-0.8c0.1-0.3,0.1-0.5-0.1-0.9c-0.7,0.5-1.7,0.6-1.7,1.8c0,0.4-0.4,0.5-0.6,0.3c-1.4-0.8-2.3,0.2-3.4,0.8
			c-0.7,0.4-1.4,0.8-1.7,1.6c-0.1,0.3-0.4,0.4-0.8,0.3c-1.6-0.2-2.8,0.6-4,1.4c-0.7,0.5-1.5,1.1-2.3,1.4c-0.2,0.1-0.5,0.2-0.6-0.1
			c-0.1-0.3,0-0.6,0.3-0.6c1.2-0.3,1.7-1.3,2.4-2.1c0.2-0.2,0.4-0.5,0.7-0.7c1-0.9,1.3-0.9,2.2-0.1c0.3-0.2,0.1-0.4,0.1-0.6
			c0-1.2,0.4-1.6,1.5-1.8c0.4-0.1,0.7-0.1,1.1-0.2c0.3-0.1,0.6-0.2,0.8-0.3c0.5-0.2,0.8-0.7,0.6-0.9c-0.3-0.4-0.8-0.3-1.1,0
			c-0.6,0.5-1.2,0.5-1.9,0.5c-0.2,0-0.4,0-0.5-0.2c0-0.2,0-0.3,0.2-0.4c0.1-0.1,0.2-0.2,0.3-0.3c0.5-0.5,0.5-0.6-0.1-0.8
			c-0.3-0.1-0.6-0.1-0.6-0.5c0-0.4,0.3-0.6,0.6-0.7c0.8-0.3,1.3-0.8,1.2-1.7c0-0.2,0.1-0.4,0.3-0.4c0.2,0,0.3,0.2,0.3,0.4
			c0,0.1,0,0.2,0,0.3c0,0.2,0.1,0.4,0.3,0.4c0.2,0.1,0.5-0.1,0.6-0.3c0.2-0.8,0.8-0.9,1.4-1.1c0.2-0.1,0.4-0.2,0.5-0.4
			c0.2-0.2,0.4-0.4,0.2-0.7c-0.3-0.3-0.4,0-0.6,0.2c-0.1,0.1-0.3,0.3-0.4,0.4c-0.3,0.2-0.5,0-0.7-0.2c-0.2-0.2-0.2-0.4,0-0.6
			c0.5-0.4,0.8-0.8,0.5-1.5c-0.1-0.1,0.2-0.5,0.3-0.7c0.4-0.8-0.1-1.7-1-1.8c-0.1,0-0.2,0-0.2,0c-0.6,0.1-0.8-0.1-0.8-0.8
			c0-0.3-0.1-0.7-0.2-1c0-0.3-0.1-0.7-0.1-1c-0.4-0.2-0.7,0.2-1,0.3c-0.8,0.2-1,0.2-1.5-0.5c-0.2-0.3-0.4-0.5-0.8-0.5
			c-0.8,0-1.1-0.5-1.3-1.2c-0.1-0.3-0.1-0.6-0.2-0.9c-0.3-1.2-0.5-1.4-1.8-1.5c0.2-0.3,0.5-0.5,0.7-0.6
			C35.2,146,35.6,146,35.8,145.6L35.8,145.6z M52.9,162.9c1.5-1,3-1.5,4.2-2.6c0.5-0.4,1-0.8,1.6-1c1-0.3,1.8-0.8,2.5-1.4
			c1.6-1.2,3.1-2.4,4.8-3.5c0.2-0.1,0.5-0.3,0.4-0.6c-0.1-0.3-0.4-0.3-0.7-0.2c-0.2,0.1-0.4,0.1-0.6,0.2c-1.4,0.8-2.8,1.6-4.1,2.6
			c-2.5,1.8-4.8,3.9-7.5,5.4C53.2,162,53,162.2,52.9,162.9z M45.9,155.2c0.2-0.1,0.6-0.1,0.8-0.5c0.1-0.2,0.1-0.4,0-0.5
			c-0.3-0.2-0.6-0.2-0.8,0c-0.3,0.2-0.5,0.6-0.4,1C45.4,155.2,45.6,155.3,45.9,155.2z"/>
		<path class="st0" d="M74.6,158.9c-0.4,0.5-0.8,0.8-1.4,0.5c-0.3-0.1-0.5-0.1-0.8,0.1c-0.1,0.1-0.3,0.1-0.3,0.3
			c0.1,0.3,0.2,0.2,0.4,0.2c0.2-0.1,0.3-0.2,0.5,0c0,0.5-0.4,0.5-0.6,0.7c-2.5,1.3-4.7,3.1-7.1,4.5c-1,0.6-2,1.1-3.1,1.4
			c-0.5,0.1-0.9,0.2-0.9,0.8c0,0.2-0.3,0.3-0.4,0.5c-1,0.7-2.1,1.3-3.1,2c-0.3,0.2-0.6,0.4-1,0.5c-0.9,0.2-1.5,0.7-2.1,1.3
			c-0.5,0.5-1,0.8-1.6,0.9c-1,0.3-1.9,0.6-2.9,1c-0.8,0.3-1.7,0.3-2.5,0c-0.3-0.1-0.5-0.2-0.6-0.5c0-0.4,0.2-0.5,0.6-0.6
			c0.8-0.3,1.6-0.6,2.4-1.1c0,1,0.1,1.1,0.9,0.9c0.8-0.3,1.6-0.8,2.6-0.8c0.2,0,0.3-0.1,0.3-0.3c0-0.2-0.1-0.3-0.2-0.4
			c-0.5-0.3-0.9-0.7-1.6-0.4c-0.1,0-0.3,0-0.4,0c-0.2,0-0.2-0.2-0.3-0.3c0-0.2,0.1-0.3,0.2-0.4c0.2-0.1,0.4,0,0.6-0.1
			c0.4-0.2,0.9-0.3,1.2-0.8c0.6-0.9,1.4-1.4,2.3-2c2-1.3,3.9-2.7,5.7-4.3c1-0.9,2.1-1.7,3.1-2.6c0.2-0.2,0.3-0.3,0.6-0.2
			c0.2,0.2,0.1,0.4-0.1,0.6c-0.1,0.1-0.1,0.2-0.1,0.3c0.5,0.2,0.9,0,1.3-0.2c0.4-0.3,0.9-0.6,1.3-0.9c0.9-0.7,1.8-1.2,3-1
			c0.2,0,0.4,0,0.5-0.1c1.5-1,3.1-1.7,4.4-2.9c0.5-0.4,0.9-0.4,1.5-0.1c-1.2,0.8-2.5,1.3-3.5,2.3c0.4,0.3,0.8,0,1,0.3
			C74.4,158.5,73.6,159.1,74.6,158.9L74.6,158.9z M67.9,161c-0.6-0.2-1.2-0.2-1.8,0.2c-1.1,1-2.5,1.7-3.7,2.5
			c-0.7,0.5-1.6,0.8-2.1,1.7c1.3-0.6,2.9-0.5,3.9-1.8c0.3-0.4,0.6-0.2,0.7,0.2c0,0.1,0,0.3,0,0.5c0,0.2,0.1,0.4,0.3,0.4
			c0.2,0,0.3-0.1,0.3-0.2c0.1-1.2,1.1-1.7,1.8-2.3C67.7,161.8,67.9,161.4,67.9,161c1-0.2,0.8,0.8,1,1.3c0.4-0.2,0.6-0.4,0.7-0.7
			c0.1-0.3,0.3-0.6,0.6-0.8c0.3-0.1,0.5-0.4,0.4-0.7c-0.1-0.2-1.1-0.9-1.2-0.8C68.5,159.3,67.9,160.1,67.9,161z M57.2,167.3
			c-0.7,0.1-1.1,0.7-1.8,0.8c-0.4,0.1-0.8,0.3-0.6,0.8c0.1,0.4,0.3,0.9,0.9,0.9c0.6,0,1.1-0.2,1.6-0.4c0.3-0.1,0.7-0.4,0.5-0.8
			c-0.1-0.4-0.5-0.1-0.8-0.2c-0.1,0-0.2,0-0.3-0.2C56.8,167.9,57.3,167.8,57.2,167.3z M57.6,167.1c1.6-0.1,2.2-0.4,2.5-1.4
			C59,165.8,58.4,166.6,57.6,167.1z"/>
		<path class="st0" d="M91.3,123.3c1.2-0.5,2.4-1,3.6-1.5c-0.1,2-0.6,3.9-1,5.9c-0.8,4.2-1.8,8.3-2.9,12.4c-0.8,3-1.7,6.1-2.8,9
			c-0.3,0.8-0.6,1.6-0.9,2.4c-0.1,0.3-0.1,0.6-0.6,0.7c0.2-1.1,0.4-2.1,0.7-3.2c1.2-5,2.3-10.1,3.3-15.2c0.5-2.7,0.8-5.5,1.2-8.2
			C91.9,124.8,92.1,123.9,91.3,123.3z"/>
		<path class="st0" d="M31,152.3c-0.5,0-1.2,0.1-1.4-0.5c-0.2-0.5,0.4-0.8,0.8-1.1c0.4-0.4,1-0.6,1.6-0.7c0.8-0.1,1.2,0,1.3,0.5
			c0.2,0.6-0.1,1.3-0.6,1.5C32.1,152.2,31.6,152.3,31,152.3z"/>
		<path class="st0" d="M134.6,134.5c0,0.2-0.1,0.4-0.4,0.4c-0.4,0.1-1.1-0.3-1.2-0.6c0-0.3,0.2-0.4,0.4-0.4
			C134,133.8,134.6,134.1,134.6,134.5z"/>
		<path class="st0" d="M74.6,158.9c0-0.1,0.2-0.2,0.2-0.2C74.9,159,74.7,158.8,74.6,158.9L74.6,158.9z"/>
		<path class="st0" d="M162.5,120.3c0,0,0,0.1-0.1,0.1C162.4,120.3,162.4,120.3,162.5,120.3C162.5,120.3,162.5,120.3,162.5,120.3z"
			/>
	</g>
</g>
<g id="Camada_3">
	<path class="st1" d="M107.7,56.6c-0.3-0.6-0.9-0.9-1.6-1c-2.8-0.4-5.5-1.1-8.3-1.6c-1.2-0.2-2.4-0.5-3.6-0.7
		c-1.9-0.3-3.8-0.5-5.7-0.8c-1.7-0.3-3.4-0.5-5.1-0.6c-2.5-0.2-4.8,0.5-6.2,2.8c-0.8,1.2-1.6,2.5-2.3,3.8c-1,1.7-2.2,3.3-3,5.2
		c-1,2.4-2.5,4.5-3.6,6.7c-0.5,1-0.9,2-1.3,3.1c-0.2,0-0.4,0-0.7,0.1c-4,1.6-8.1,3.3-12.1,4.9c-3,1.2-6,2.4-9,3.6
		c-1.8,0.7-3.5,1.5-5.3,2.2c-2.8,1.1-5.5,2.3-8.3,3.4c-2.2,0.9-4.4,1.8-6.6,2.7c-0.8,0.3-1.5,0.8-2.3,0.7c0.1-0.5-0.2-0.8-0.7-0.7
		c-0.8,0.1-1.5,0.5-2.2,0.8c0.3,0.4,0.6,0.7,0.4,1.2c-1,0.2-1.8,0.8-2.7,1.1c0-0.5,0.6-0.7,0.6-1.2c-0.8-0.3-1.5-0.2-2.3,0
		c-0.5,0.1-0.9,0.2-1.3,0.1c-1-0.1-2-0.1-3,0c-0.9,0.1-1.1,0-1.1-0.9c0-0.6-0.2-0.9-0.8-0.9c-0.5,0-0.6-0.3-0.5-0.7
		c0.2-1.6,1.4-2.3,2.5-3.1c1.4-0.9,2.8-1.7,4.2-2.6c0.4-0.3,0.7-0.6,1.2-1.1c-1.1-0.1-1.5,1-2.5,1c0.8-1,1.9-1.7,2.7-2.8
		c-1.1,0.2-1.8,1.1-2.7,1.3c-0.3-0.3,0-0.5,0.1-0.6c0.3-0.4,0.2-0.9,0.2-1.3c-0.1-0.4-0.2-1-0.6-1.1c-0.4-0.1-0.7,0.3-1,0.6
		c-0.2,0.2-0.4,0.6-0.7,0.3c-0.3-0.3,0-0.5,0.3-0.8c0.9-0.9,2-1.6,3-2.3c1.9-1.3,3.9-2.3,5.8-3.5c0.5-0.3,1-0.7,1.5-1.1
		c0.7-0.5,1.3-1.1,2.2-1.3c0.3-0.1,0.6-0.3,0.9-0.5c0.5-0.4,1.1-0.9,0.6-1.7c-0.1-0.2,0-0.3,0.2-0.3c0.4-0.1,0.7,0.1,1,0.4
		s0.3,0.6,0,0.9c-0.2,0.3-0.7,0.6-0.3,1c0.3,0.3,0.7-0.1,1-0.3c0.7-0.3,1.2-0.8,2-0.7c0.1,0,0.2,0,0.3-0.1c1.7-1.3,3.9-2.1,5.5-3.6
		c0.5-0.5,1.1-0.7,1.7-1.1c0.9-0.6,1.9-1.1,2.5-2.1c0.5-0.9,1.6-1.3,2.6-1.8c0.5-0.3,1.2-0.5,0.8-1.3c-0.1-0.3,0.2-0.4,0.4-0.4
		c1-0.4,1.8-1.3,2.8-1.9c-1,0-2,0.1-2.9,0.7c-0.4,0.2-0.7,0.4-1.1,0.5c-0.5,0.3-0.9,0-0.8-0.6c0.1-0.4,0.2-0.8,0.4-1.2
		c0.1-0.3,0.4-0.5,0.1-0.8c-0.3-0.3-0.7-0.4-1.1-0.1c-0.3,0.2-0.7,0.5-1,0.7c-0.1,0.1-0.3,0.1-0.4,0.2c-0.1-0.8,0.3-1.8,0.9-1.9
		c1-0.2,1.6-1.1,2.6-1.2c0.3,0,0.3-0.4,0.3-0.6c0.1-1,0.3-1.3,1.1-1.3c0.9,0,1.5-0.4,2.1-0.9c0.4-0.3,0.8-0.6,1.4-0.8
		c0.7-0.2,1.1-1,1.7-1.2s1.3-0.2,1.9-0.6c0.8-0.6,1.5-1.2,2.2-1.7c0,0,0.1-0.1,0.1-0.1c-0.1,0-0.1,0-0.1,0.1
		c-0.9-0.1-1.6,0.4-2.3,0.9c-1.1,0.7-2.3,1.2-3.4,1.9c-0.1,0.1-0.3,0.1-0.4,0.2c-1.1,0.1-1.7,0.4-2.5,1.1c-0.3,0.3-0.7,0.5-1.1,0.7
		c-1.4,0.8-2.7,1.6-3.8,2.7c-0.6,0.6-1.3,1-2.1,1.2c-0.4,0.1-0.7,0.3-0.9,0.6c-0.3,0.5-0.6,0.9-1.2,0.5c-0.1-0.1-0.3,0-0.4,0.1
		c-0.7,0.6-1.6,1-1.8,1.9C34.1,59,33.8,59,33.5,59c-0.3,0-0.5-0.1-0.6-0.4c-0.1-0.4,0.1-0.6,0.3-0.8c0.2-0.2,0.6-0.2,0.7-0.6
		c0-0.1,0-0.1-0.1-0.2c-0.2-0.2-0.7,0-0.7-0.4c0-0.4,0.3-0.4,0.6-0.6c2.3-1.7,4.9-2.9,7.3-4.4c0.6-0.4,1.2-0.7,1.8-1
		c0.7-0.3,1.3-0.8,1.6-1.5c0.2-0.4,0.5-0.6,1-0.6c0.9,0.1,1.8-0.2,2.5-0.8c0.5-0.4,1.1-0.7,1.7-1.1c-0.8-0.4-1.3,0.5-2,0.3
		c0.9-1.1,2.2-1.7,3.6-1.8c1.3,0,2.4-0.5,3.4-1.2c0.2-0.1,0.3-0.3,0.6-0.4c0.7-0.2,1.3-0.6,1.3-1.5c0-0.2,0.2-0.3,0.4-0.3
		c0.3,0,0.5,0.3,0.4,0.6c-0.1,0.8-0.4,1.5-1,2c-0.3,0.2-0.6,0.4-0.8,0.6s-0.4,0.5-0.2,0.9c0.3,0.5,0.7,0.5,1.2,0.5
		c0.4,0,0.4-0.3,0.5-0.6c0.2-1.1,0.7-1.4,1.8-1.2c1.2,0.2,2.4,0.1,3.3-1c-0.5-0.6-1.1-1.2-2-0.8c-0.2,0.1-0.3,0-0.4-0.1
		c-0.1-0.2,0-0.4,0.2-0.5c0.8-0.4,1.2-1.3,2-1.7c0-0.4-0.2-0.4-0.3-0.5c-0.3-0.2-0.2-0.5,0-0.6c0.2-0.1,0.5-0.2,0.8-0.4
		c0.9-0.3,1.9-0.6,2.5-1.5c0.5,0.5,0.4,1.2,0.7,1.7c0.3,0.9,0.5,1,1.3,0.5c0.9-0.6,2-0.9,3.1-1c0.5-0.1,0.8-0.2,1.1-0.6
		c0.4-0.6,0.9-1,1.4-1.4c0.3-0.2,0.4-0.4,0.1-0.7c-0.4-0.2-0.2-0.5,0-0.8c0.5-0.6,1.2-1.1,1.9-1.4c0.8-0.3,1.1-0.1,1.3,0.7
		c0.2,0.9,0.3,1,1.1,0.4c0.4-0.3,0.8-0.6,1.1-1c0.1-0.1,0.1-0.2,0.2-0.3c-0.1-0.3-0.7-0.3-0.5-0.8c0.2-0.4,0.5-0.5,0.9-0.5
		c0.2,0,0.4,0,0.5-0.1c0.5-0.5,1.1-0.9,1.9-0.9c0.3,0,0.4-0.5,0.3-0.9c-0.2-0.5,0.1-0.7,0.4-0.9c0.6-0.2,1.1-0.8,1.8-0.5
		c0,0.4-0.3,0.4-0.4,0.6c-0.1,0.1-0.4,0.4-0.3,0.4c0.4,0.7-0.2,1.1-0.5,1.8c1.8-0.1,2.8-1.6,4.4-1.7c0-0.2,0-0.3-0.1-0.3
		c-0.9-0.6-0.9-0.6-0.6-1.6c0.3-0.8,0.3-0.8,0.9-1.3c0,0.9,0.9,1,1.1,1.8c0.1,0.2,0.4,0.2,0.6,0c0.2-0.2,0.2-0.4,0-0.6
		c-0.4-0.4-0.9-0.8-0.5-1.4c0.4-0.7,1.5-1.1,2.2-0.7c1,0.5,2,0.3,3,0.4c0.4,0,0.7-0.1,1.1-0.3c0.5-0.2,0.9-0.4,0.6-1.1
		c-0.1-0.1,0-0.3,0.1-0.4c0.3-0.3,0.7-0.5,0.9-0.8s0.7,0,1.1,0c1.1,0.1,2.1,0.6,3.2,0.5c0.5,0,1.1-0.1,1.5-0.4
		c0.2-0.1,0.4-0.3,0.6-0.3c0.7-0.1,0.9,0,1.1,1c2-0.2,2.9-0.8,3.4-2.1c-1.1,0.1-2,1.2-3.2,0.5c0.9-0.6,1.3-1.6,2.3-2.1
		c-0.8-0.2-1.5,0-2.2,0.3c-0.6,0.2-1.3,0.5-1.9,0.7c-0.2,0.1-0.4,0.1-0.5-0.1c-0.1-0.2,0.1-0.4,0.3-0.4c0.5-0.2,1-0.4,1.5-0.6
		c0.6-0.2,1.2-0.5,1.8-0.9c1.4-0.8,2.9-1.4,4.3-2.2c1.1-0.7,2.2-0.8,3.5-0.9c1.1,0,2.1-0.3,3-1.1c-0.4-0.3-0.6-0.2-0.9-0.1
		c-0.5,0.2-1,0.2-1.4,0.1c-0.7-0.1-0.9-0.7-0.5-1.2c0.2-0.3,0.5-0.5,0.8,0c0.3,0.5,0.6,0.6,1.2,0.4c0.3-0.1,0.8-0.2,1.1,0
		c0.5,0.5,0.9,0.2,1.2-0.2c0.2-0.2,0.4-0.3,0.7-0.3c1-0.1,2-0.3,2.9-0.9c0.8-0.5,1.4-1.2,2.3-1.5c0.7-0.3,1.4-0.4,2.2-0.3
		c-0.3,0.5-0.8,0.7-1.1,1c-0.1,0.1-0.4,0.3-0.1,0.4c0.5,0.4,0.1,0.6-0.1,0.9c-0.8,0.8-1.8,1-2.8,1c-1-0.1-2.1,0.4-3.1,0.1
		c-0.1,0-0.2,0.1-0.4,0.2c-0.5,0.6-1,1.2-1.8,1.4c-0.1,0-0.2,0.2-0.2,0.4s0.2,0.2,0.4,0.2c0.4,0,0.9-0.1,1,0.4
		c0.1,0.6-0.5,0.8-0.9,0.9c-1.3,0.4-2.4,1-3.6,1.6c-0.2,0.1-0.5,0.1-0.4,0.5c0.9-0.1,1.6-0.1,2.4-0.7c0.9-0.6,2-0.9,3-1.2
		c0.9-0.2,1.8-0.5,2.7-0.9c0.5-0.2,0.8-0.2,1,0.4c0.2,0.5,0.4,0.5,0.7,0.1c0.1-0.1,0.2-0.2,0.3-0.4c0.2-0.2,0.4-0.3,0.6-0.1
		c0.3,0.2,0.3,0.4,0.1,0.7c-0.1,0.2-0.3,0.3-0.2,0.7c1.1-0.3,2.3-0.4,3.5-0.4c0.4,0,0.8-0.1,0.9-0.5c0.2-0.6,0.6-0.7,1.1-0.6
		c0.5,0.1,1.1,0.1,1.6-0.1c0.3-0.1,0.5-0.1,0.7,0.1c0.2,0.4-0.1,0.5-0.3,0.8c-0.4,0.4-0.8,0.7-1.3,0.8c-0.3,0.1-0.5,0.3-0.4,0.5
		c0.2,0.5,0,0.8-0.4,0.9c-0.3,0.1-0.5,0.4-0.7,0.7c-0.6,0.7-0.9,1.6-1.7,2c-0.3,0.1-0.5,0.5-0.3,0.8c0.3,0.5,0.1,0.9-0.3,1.3
		c-0.4,0.4-0.4,1-0.5,1.5c-0.4,0.1-0.5-0.2-0.8-0.3c-0.5-0.2-1-0.4-1.3,0.3c-0.1,0.3-0.4,0.3-0.7,0.4c-0.6,0.2-1.2,0.4-1.8,0.6
		c-1.2,0.4-2.4,0.9-2.7,2.4c-0.1,0.3-0.4,0.5-0.6,0.6c-0.9,0.5-1.9,0.8-2.9,0.9c-1.1,0.2-1.7,1-1.6,1.9c0,0.4,0.1,0.5,0.6,0.4
		c2.2-0.4,4.3-0.9,6.3-2c1.4-0.8,3-1.1,4.6-1.3c0.3,0,0.7-0.1,1-0.2c0.8-0.5,1.7-1,2.5-1.5c0.6-0.4,1.1-0.6,1.8-0.7
		c2.4-0.5,4.7-0.9,7.1-1.4c0.3-0.1,0.6-0.2,1-0.3c0.7-0.2,0.9-0.2,1.3,0.5c0.3,0.6,0.6,0.6,1.1,0.2c0.7-0.5,1.6-0.7,2.4-0.9
		c1.6-0.2,3.1-0.5,4.5-1.2c0.2-0.1,0.5-0.3,0.7,0c0.1,0.2-0.1,0.4-0.4,0.5c-1.7,0.8-3.3,1.8-5.2,2.1c-0.4,0.1-0.8,0.1-1.2,0.4
		c-0.1,0.1-0.2,0.3-0.1,0.5c0.1,0.1,0.2,0.1,0.4,0.1c1-0.3,2-0.6,3-0.9c0.2,0,0.4-0.1,0.5-0.1c0.4,0,0.7-0.2,0.6,0.5
		c-0.1,0.8,0.4,1.1,1.2,0.9c1-0.2,2-0.5,2.8-1.3c-0.3-0.4-0.7,0-1.1-0.3c1.3-0.9,2.8-1.2,4.3-1.7c2-0.6,3.9-1.2,5.9-1.8
		c1.7-0.5,3.3-1.1,4.8-1.8c0.4-0.2,0.9-0.4,1.4-0.2c0.9,0.2,1.6-0.1,2.2-0.7c0.2-0.2,0.3-0.4,0.6-0.4c0.1,0,0.1,0.1,0.1,0.2
		c0.1,0.4-0.2,0.5-0.5,0.6c-0.6,0.2-1,0.7-1.5,1c-0.3,0.2-0.6,0.5-0.8,0.8c-0.2,0.3-0.2,0.6,0,0.8c0.2,0.2,0.4,0.3,0.7,0.2
		c0.4-0.1,0.8-0.2,1.2-0.2c0.1,0,0.3,0,0.4,0.2c0,0.1,0,0.2-0.1,0.3c-0.2,0.2-0.4,0.4-0.7,0.6c-0.3,0.2-0.5,0.4-0.5,0.7
		c0.1,0.8-0.4,1.1-1.1,1.2c-0.9,0.2-1.5,0.8-2.3,1.2c-0.2,0.1-0.5,0.3-0.6,0.8c1.2-0.2,2.4-0.1,3.6-0.6c0.4-0.2,0.9-0.4,1.4-0.3l0,0
		c0,0.4,0,0.7,0.6,0.5c1.5-0.5,3-0.6,4.6-0.3c0.9,0.2,1.8,0,2.7,0.1c-0.6,0.6-1.5,0.6-2.2,1c-2.7,1.3-5.5,2.3-8.3,3.5
		c-2,0.9-4.1,1.6-6.1,2.5c-2,0.8-3.9,1.7-5.9,2.5c-2.4,1-4.9,1.9-7.3,2.9c-2.8,1.2-5.7,2.4-8.5,3.5c-1,0.4-1.9,0.9-2.9,1.2
		c-1.9,0.7-3.8,1.5-5.7,2.2c-1.4,0.5-2.8,1.2-4.3,1.7c-1,0.4-2,0.9-3,1.3c-1.4-1.5-3.1-2.4-5.1-3c-1.3-0.4-2.6-0.8-4-0.7
		c-1.4,0.1-3,0.8-3.6,2.6c-0.1,0.4-0.3,0.8-0.5,1.1c-0.6,1.1-0.6,1.2,0.5,1.8c1,0.5,2,1,2.5,2.2C109,56.1,108.4,56.5,107.7,56.6z
		 M104.2,50.3c0-1.9,0.1-1.9-0.8-3c-0.6-0.8-1.4-1.4-2.4-1.8c-3-1.2-6-1.3-9.1-0.1c-1.1,0.4-1.9,1-2.6,1.9c-0.5,0.6-0.8,1.4-1.2,2.1
		c-0.3,0.6-0.1,1,0.6,1.1c1.1,0.2,2.1,0.3,3.2,0.5c1.6,0.2,3.1,0.3,4.7,0.6c2.1,0.4,4.1,1,6.2,1.3c0.9,0.1,1.3,0,1.4-0.9
		C104.3,51.4,104.2,50.8,104.2,50.3z M111.1,33.3c-1.2,0.5-2.6,0.3-3.4,1.6c-0.1,0.1-0.2,0.1-0.3,0.2c-1.3,0.5-2.6,1.1-4,1.4
		c-1.1,0.2-1.8,1.1-2.6,1.8c-0.2,0.2,0,0.6,0.4,0.6c0.2,0,0.4-0.1,0.5-0.2c0.9-0.4,1.8-0.8,2.8-1.3c1.5-0.7,2.9-1.4,4.6-1.5
		c0.2,0,0.4-0.1,0.5-0.1c0.4-0.1,0.6-0.3,0.6-0.7c-0.1-0.5,0.2-0.8,0.7-1.1C111,33.9,111.2,33.8,111.1,33.3z M56,51.7
		c-0.5,0-1.1,0.1-1.1-0.7c0-0.4-0.4-0.3-0.7,0c-0.2,0.2-0.3,0.5-0.6,0.4c-0.4-0.2-0.1-0.5,0-0.7c0-0.1,0-0.2,0-0.3
		c0-0.2-0.1-0.4-0.3-0.4c-0.2,0-0.3,0.1-0.4,0.3c-0.4,0.5-0.1,1.1,0,1.6c0.1,0.4,0.4,0.6,0.7,0.5c0.5-0.2,0.7,0.1,0.9,0.5
		c0.4,0.6,0.7,0.6,1-0.1C55.6,52.3,56,52.1,56,51.7z M145.7,32c1.6-0.1,3.1-0.3,4.3-1.8C148.1,30.1,147,31.3,145.7,32z M36.1,55.9
		c0.4,0.2,0.5-0.1,0.8-0.2c1.1-0.6,2-1.5,3.3-1.8c0.4-0.1,0.8-0.5,0.7-1.3c-1,0.8-2,1.3-3.1,1.7C37.1,54.7,36.4,55.1,36.1,55.9z
		 M57.2,54.1c-1.2-0.1-2.1,0.4-2.8,1.2c-0.1,0.1-0.2,0.2-0.2,0.4c0.1,0.2,0.3,0.2,0.5,0.2C55.7,55.7,56.6,55.3,57.2,54.1z M53,55.9
		c-0.8,1-2.1,1.1-2.5,2.3C52.3,58.3,53.1,57.6,53,55.9z M96.3,41.2c1-0.3,2.2-0.3,2.7-1.6C97.8,39.8,97.1,40.7,96.3,41.2z M38.6,67
		c-0.8,0.2-1.4,0.4-2,0.7c-0.2,0.1-0.4,0.4-0.3,0.6c0.1,0.3,0.4,0.2,0.7,0.1C37.6,68.2,38.1,67.8,38.6,67z M50.5,52
		c0,0.4,0,0.7,0.4,0.7c0.3,0,0.6-0.2,0.6-0.5c0-0.1,0-0.3,0-0.5c0-0.3,0.1-0.7-0.3-0.8c-0.4-0.1-0.7,0.2-0.8,0.6
		C50.5,51.8,50.5,51.9,50.5,52z"/>
	<path class="st1" d="M38.5,59.9c0.3-0.6,0.7-0.5,1.1-0.4c0.5,0.1,0.9,0.1,1.3,0c0.5-0.2,1.2,0.5,1,1c-0.1,0.3-0.3,0.3-0.6,0.4
		c-0.5,0-1-0.1-1.5,0.1c-0.1,0.1-0.3,0-0.4-0.1C39.3,60.4,38.9,60.1,38.5,59.9z"/>
	<path class="st1" d="M22.4,91.3c-0.1,0.2-0.2,0.2-0.4,0.2C22.1,91.4,22.2,91.3,22.4,91.3z"/>
	<path class="st1" d="M22.7,91.1c0,0.1-0.1,0.2-0.2,0.2C22.5,91.2,22.6,91.1,22.7,91.1z"/>
	<path class="st1" d="M166.2,29.2c0,0,0.1-0.1,0.1-0.1C166.2,29.1,166.2,29.2,166.2,29.2C166.2,29.2,166.2,29.2,166.2,29.2
		L166.2,29.2z"/>
	<path class="st1" d="M13.9,84.3C13.9,84.4,13.8,84.4,13.9,84.3C13.8,84.4,13.8,84.4,13.9,84.3L13.9,84.3z"/>
	<path class="st1" d="M13.9,84.3c0,0,0.1-0.1,0.1-0.1C14,84.3,14,84.3,13.9,84.3C13.9,84.3,13.9,84.3,13.9,84.3L13.9,84.3z"/>
</g>
<g id="Camada_2_00000111180261610665282120000002051260354422176429_">
	<path class="st2" d="M22.7,91.1c0.9,0.1,1.6-0.4,2.3-0.7c2.2-0.9,4.4-1.8,6.6-2.7c2.8-1.1,5.5-2.3,8.3-3.4c1.8-0.7,3.5-1.5,5.3-2.2
		c3-1.2,6-2.4,9-3.6c4-1.6,8.1-3.3,12.1-4.9c0.2-0.1,0.4-0.1,0.7-0.1c-0.3,1.7-0.7,3.5-0.2,5.2c0.3,1,0.7,1.9,1.2,2.8
		c1.7,3,3.5,5.9,5.2,8.8c0.7,1.3,1.4,2.6,2,3.9c0.9,2,1.9,4.1,3.1,6c0.8,1.3,1.3,2.6,2,3.9c1.2,2.5,3.1,4.2,5.3,5.5
		c0.8,0.5,1.9,0.5,2.8,0.7c2.1,0.3,4.2,0.2,6.3,0.3c2,0,4.1-0.2,6-0.7c1.1-0.3,2.1-0.7,3.1-1.2c0.4-0.2,0.7-0.4,1.3-0.5
		c-1,0.8-1.8,1.6-2.8,2c-1.7,0.6-3.3,1.4-5.1,1.8c-1.7,0.4-3.4,0.7-5.1,0.7c-1.1,0-2.3,0-3.4,0c-1.1,0-2.2-0.2-3.2-0.6
		c-0.7-0.3-1.4-0.4-2.1-0.5c-0.6-0.1-0.8,0.1-0.7,0.7c0.1,0.7,0.1,1.4,0.1,2c0.1,1.9,1.2,3.2,2.7,4.2c1.2,0.9,2.5,1.1,3.9,1.4
		c1.6,0.3,3.2,0.4,4.8,0.6c0.6,0.1,1,0.4,0.8,1.1c-1.2,0.4-2.4,0.9-3.6,1.5c-2.3-0.4-4.5-0.9-6.5-2c-0.7-0.4-1-0.3-1.4,0.5
		c-0.2,0.4-0.3,0.8-0.4,1.3c-0.3,1.4-0.7,2.8-1.2,4.2c-0.3,0.1-0.5,0.1-0.8,0.2c-1.6,0.6-3.2,1.3-4.8,1.9c-2.4,1-4.8,2-7.3,3
		c-4.3,1.7-8.6,3.5-12.9,5.3c-2.7,1.1-5.5,2.2-8.2,3.3c-3.6,1.5-7.2,3-10.8,4.5c-0.4,0.2-0.8,0.3-1.3,0.2c0.1-0.5,0.7-0.5,0.8-1.1
		c-1.1,0-1.9,0.9-3.1,1.1c0.7-0.9,3-2.8,3.9-3.2c0.2,0.4-0.3,0.9,0.4,1.2c0.3-0.8,1-1.1,1.7-1.6c0.5-0.4,1-0.8,0.8-1.6
		c-0.8,0.4-1.3,1.1-1.9,1.7c-0.3,0.2-0.5,0.6-1,0.4c0.3-0.4,0.7-0.8,1-1.2c0.3-0.4,0.7-0.6,1-1c-0.3-0.4-0.6,0-0.9,0l0,0
		c0.2-0.7,0.4-1.4,0-2.2c-0.4-0.9-0.5-1-1.6-0.9c0.3-0.6,1-0.9,1.1-1.5c-0.9,0-1.2,0.1-1.3,0.7c-0.1,0.5-0.4,0.7-0.8,0.9
		c-0.7,0.3-1.3,0.8-1.9,1.4c-0.9,0.9-1.9,1.5-3.1,2.2c-0.1-0.5,0.1-1-0.3-1.3c-0.3-0.3-0.8-0.2-1.1-0.4c-0.1-0.4,0.2-0.7,0.5-1
		c0.6-0.8,1.2-1.6,1.8-2.5c0.1-0.2,0.3-0.4,0.1-0.6c-0.4-0.6,0-0.9,0.3-1.3c0.3-0.3,0.5-0.5,0.8-0.8c0.2-0.3,0-0.6-0.3-0.5
		c-0.9,0.3-1.8,0.6-2.7,1.1c1,0.6,1,1.3,0.1,1.9c-0.5,0.3-0.9,0.5-1.3,0.8c-0.3,0.2-0.6,0.3-0.9,0c-0.4-0.3-0.5-0.7-0.1-1
		c0.1-0.1,0.2-0.1,0.3-0.2c0.3-0.2,1-0.2,0.8-0.8c-0.1-0.4-0.7-0.2-1-0.2c-0.9,0-1.8,0-2.7,0.3c-0.2,0.1-0.4,0.1-0.6-0.1
		c-0.6-0.5-1.2-0.3-1.8-0.1c-0.3,0.1-0.5,0.2-0.8,0.3c-0.9,0.1-1,0.1-1-0.8c0-0.4-0.2-0.5-0.4-0.7c-1.3-0.8-1.3-2.1-0.2-3
		c0.9-0.8,1.8-1.7,3-2.1c0.3-0.1,0.6-0.4,0.4-0.8c-0.2-0.5,0-0.7,0.4-0.9c0.5-0.2,1-0.6,1.3-1c0.5-0.5,0.9-1,1.5-1.3
		c0.4-0.2,0.7-0.5,0.6-1.2c-0.8,0.6-1.6,1.2-2.5,1.5c-0.2-0.3-0.1-0.5,0-0.8c0.1-0.3,0.1-0.7,0-1c-0.2-0.4-0.2-1.1-0.6-1.3
		c-0.5-0.2-0.8,0.5-1.1,0.8c-0.1,0.1-0.2,0.2-0.2,0.2c-0.2,0.2-0.5,0.4-0.8,0.1c-0.2-0.3,0-0.5,0.2-0.7c1.9-1.4,3.7-3,5.8-4
		c1.2-0.6,2.3-1.4,3.4-2.1c0.1,0,0.1-0.1,0.2-0.1c0.6-0.6,0.8-2.7,0.3-3.3c-0.2-0.3-0.5-0.4-0.9-0.4c-0.3,0.1-0.6,0.2-0.9,0.1
		c-0.2-0.3,0-0.5,0.1-0.7c0.2-0.6,0.1-1.1-0.2-1.6c-0.2-0.5-0.5-0.6-1-0.5c-0.3,0.1-0.6,0.2-0.9,0.2c-0.4,0-0.7-0.1-0.9-0.4
		c-0.2-0.5-0.6-0.7-1.1-0.8c-0.6-0.1-1-0.6-1-1.3c0-0.1,0-0.3-0.1-0.4c-0.2-1.1-0.3-1.2-1.4-1.2c-0.2,0-0.4,0.1-0.5-0.1
		c-0.1-0.2,0-0.5,0.2-0.6c0.6-0.3,1.1-0.8,1.7-0.9c0.8-0.1,1.1-0.6,1.4-1.2c0.5-0.9,1-1.7,2-2.2c0.5-0.2,0.6-0.5,0.7-1.6
		c-0.5,0.2-0.7,0.8-1.3,0.8c-0.4-0.2,0.5-0.9-0.4-1c-0.2,0,0-0.2,0.1-0.3c0.5-0.7,0.5-1.4,0-2.1c-0.4-0.5-0.4-0.7,0.2-1.1
		c0.4-0.3,0.8-0.5,0.9-1.1c-0.7,0.1-0.9,0.9-1.6,0.9l0,0c0-0.1,0-0.1,0-0.2c0-0.3,0.6-0.7,0-1c-0.4-0.2-0.7,0.3-0.9,0.6
		c-0.6,0.8-1.4,1.5-2.2,2.1c-1,0.8-2.3,1.4-3.2,2.3c-0.2,0.1-0.4,0.3-0.6,0.1c-0.2-0.2-0.1-0.4,0-0.6c0.2-0.5,0-0.6-0.5-0.6
		c-0.9-0.2-1-0.2-0.5-1.1c0.4-0.8,0.8-1.5,1.5-2.1c0.4-0.4,0.6-0.9,0.7-1.4c0-0.4,0-0.8,0.3-1.1c0.2,0,0.3-0.1,0.4-0.2l0,0
		C22.5,91.3,22.6,91.3,22.7,91.1L22.7,91.1z M39.6,135.4c1.1-0.1,1.3-1.3,2.1-1.9C40.5,133.6,40,134.4,39.6,135.4
		c-1,0.2-1,0.3-1,1.2C39.2,136.4,39.5,136,39.6,135.4z M30.5,92.1c0.4,0.1,0.7,0.1,1.1,0c0.3-0.1,0.5-0.2,0.5-0.5
		c0-0.3-0.3-0.2-0.5-0.3C30.8,91.1,30.7,91.2,30.5,92.1z M29.1,93.3L29.1,93.3L29.1,93.3L29.1,93.3z"/>
	<path class="st2" d="M119.7,51.9c1-0.5,1.9-1,3-1.3c1.4-0.5,2.8-1.2,4.3-1.7c1.9-0.7,3.8-1.6,5.7-2.2c1-0.4,1.9-0.8,2.9-1.2
		c2.9-1.1,5.7-2.4,8.5-3.5c2.4-1,4.9-1.9,7.3-2.9c2-0.8,3.9-1.6,5.9-2.5c2.1-0.8,4.1-1.6,6.1-2.5c2.8-1.2,5.6-2.2,8.3-3.5
		c0.7-0.4,1.6-0.4,2.2-1c0.1,0,0.3-0.1,0.4-0.2c0.4-0.4,0.6-0.3,0.9,0.1c0.5,0.8,1.2,0.9,2,0.6c1.1-0.3,1.9-0.2,2.5,0.8
		c0.4,0.6,1,0.4,1.5,0.3c0.2,0,0.4-0.2,0.6-0.3c0.1-0.1,0.3-0.3,0.5-0.1s0.1,0.4,0,0.6c-0.2,0.3-0.5,0.6-0.9,0.7
		c-0.7,0.2-1,0.6-0.8,1.4c0.2,0.7-0.4,1-0.9,1.2c-0.9,0.3-1.7,0.8-2.5,1.2c0.3,0.3,0.6,0.1,0.9,0.3c-0.1,0.4-0.7,0.4-0.9,0.9
		c0.4,0.3,0.8,0.1,1.1-0.1c0.3-0.1,0.5-0.3,0.8-0.5c0.4-0.3,0.8-0.2,1,0.3c0.3,0.9,1,1.4,1.9,1.6c0.6,0.2,0.6,0.3,0.3,0.9
		c-0.6,0.9-1,1.9-1.2,2.9c-0.2,0.7-0.5,1.3-0.9,1.9c-0.3,0.5-0.6,0.7-1.1,0.8c-1.1,0.3-2,1-2.4,2.1c-0.2,0.5-0.8,0.5-1,0.9
		c0.6,0.3,1,0.8,1.5,1.3c0.6,0.7,0.6,0.6-0.2,1.1c-0.4,0.2-0.8,0.5-1.2,0.8c-0.1,0.1-0.3,0.1-0.2,0.4c0.4,0.3,0.6,0,0.9-0.1
		c0.3-0.1,0.5-0.3,0.8-0.4c0.7-0.1,0.9,0.1,0.9,0.7c0.1,0.8,0.1,1.6,0.2,2.4c0.2,1.9-0.9,3.1-2.4,4c-0.4,0.2-0.8,0.4-1.2,0.6
		c-0.5,0.3-0.7,0.7-0.5,1.3c0.1,0.4,0.2,0.8,0.4,1.2c0.2,0.4,0.2,0.9,0.1,1.3c-0.2,0.7-0.6,1-1.3,0.8c-0.1,0-0.3-0.1-0.4-0.1
		c-0.8-0.2-1-0.1-1.3,0.6c-0.1,0.1-0.1,0.3-0.1,0.4c-0.2,0-0.3-0.1-0.4-0.3c-0.1-0.1-0.2-0.2-0.2-0.3c-0.2,0-0.2,0-0.2,0.1
		c0,0.3,0,0.5-0.1,0.8c-0.1,0.4-0.5,0.3-0.8,0.3c-0.3,0-0.4-0.2-0.4-0.6c0.2-1.3-0.9-1.8-1.4-2.7c-0.2-0.3-0.6-0.2-1-0.1
		c-0.9,0.3-1.9,0.5-2.8,0.7c-0.8,0.1-0.8,0.3-0.3,1c-0.6,0.1-1.1,0-1.5,0.6c0.3,0.4,0.8,0,1.2,0.4c0,0.4-0.7,0.8-0.1,1.4
		c0.1,0.1-0.2,0.2-0.4,0.3c-0.8,0.2-1.7,0.4-2.5,0.6c-0.6,0.2-0.8,0.5-0.6,1c0.1,0.4,0.3,0.6,0.7,0.4c0.2-0.1,0.4,0,0.5-0.1
		c0.9-0.5,1.8-0.2,2.7,0.1c0.2,0.1,0.4,0.1,0.6,0c1-0.3,1.9-0.6,2.9-0.9c0.2-0.1,0.4-0.2,0.5-0.4c0.2-0.2,0.4-0.4,0.7-0.2
		c0.6,0.3,1.1,0,1.6-0.2c0.7-0.2,1.3-0.6,2-0.8c1.2-0.4,2.4-0.4,3.7-0.5c0,0,0.1,0.1,0.1,0.1c-0.4,0.3-0.7,0.7-1.1,1
		c-0.2,0.2-0.4,0.5-0.5,0.9c-0.1,0.5,0.1,0.8,0.7,0.7c0.5-0.1,0.9-0.3,1.5,0c-0.1,0.5-0.4,0.8-0.8,1.1c-0.3,0.2-0.9,0.3-0.3,0.9
		c0.1,0.1-0.1,0.3-0.3,0.4c-0.5,0.4-1,0.7-1.7,0.9c-0.7,0.2-1.4,0.5-2.1,1.2c1.4,0.2,2.5,0,3.6-0.5c0.7-0.3,1.1-0.4,1.7,0.3
		c0.4,0.5,0.9,0.4,1.4,0.1c0.8-0.6,1.6-0.7,2.6-0.5c1.2,0.2,2.6,0.2,3.8-0.1c0.7-0.2,1.4-0.2,1.7,0.6c0.2,0.4,0.5,0.5,0.8,0.4
		c0.4,0,0.8-0.1,1.2-0.2c0.6-0.1,1.3-0.1,1.7,0.5c0.4,0.6,0.9,0.6,1.5,0.5c0.3-0.1,0.6-0.2,1-0.2c0.2,0,0.5,0,0.6,0.2
		c0.1,0.3,0,0.5-0.3,0.7c-0.2,0.1-0.4,0.2-0.6,0.3c-0.6,0.2-0.9,0.6-0.7,1.2c0.2,0.6-0.1,0.9-0.6,1.1c-1,0.5-2,0.8-3,1.4
		c-0.2,0.1-0.4,0.1-0.4,0.4c0.4,0.2,0.8-0.3,1.2,0c-0.1,0.4-0.9,0.4-0.6,0.9c0.4,0.5,0.8,0,1.1-0.3c0.9-0.6,1.2-0.6,1.7,0.4
		c0.4,0.9,1.1,1.3,2.2,1.3c-0.1,1-0.5,1.6-1.3,2c-2.5,1-5,2-7.5,3c-4.5,1.9-9,3.7-13.5,5.5c-3.3,1.3-6.5,2.7-9.8,4
		c-2.8,1.1-5.6,2.3-8.3,3.4c-2.7,1.1-5.5,2.2-8.2,3.3c-1.7,0.7-3.4,1.5-5.1,2c0.4-1.5,1.2-2.9,1.8-4.4c0.4-0.8,0.6-1.7,0.8-2.5
		c0.2-1.1,0.7-2.2,1.1-3.3c0.9-2.4,1.6-4.8,2.3-7.2c0.3-0.9,0.1-1-0.8-0.9c-1.2,0.2-2.2,0.7-3.1,1.7c-1.1,1.3-2.3,2.6-3.6,3.7
		c-1.6,1.4-3.5,1.8-5.6,1.2c-0.8-0.2-1.7-0.5-2.5-0.7c-1.9-0.6-3.8-0.7-5.8-0.8c-1.1-0.1-1.1,0.1-1,1.1c0.2,2.1,0.3,4.3-0.1,6.4
		c-0.3,2-0.9,3.9-1.7,5.7c-0.1,0.1-0.1,0.2-0.4,0.6c0-0.5,0-0.7,0-0.9c0.2-1.3,0.6-2.6,0.8-4c0.2-2.1,0.3-4.2-0.1-6.3
		c-0.5-2.6-2.3-4.1-4.9-4.6c-0.5-0.1-0.6,0-0.7,0.7c-0.1,1.1,0,2.2-0.2,3.4c-0.3,2.2-1.2,4.1-2.2,6c-0.4,0.8-0.8,1.7-1.6,2.3
		c-0.1,0.1-0.2,0.2-0.4,0.1c-0.1-0.4,0.2-0.7,0.3-1c0.9-1.8,1.6-3.6,1.9-5.6c0.3-2.3,0.3-4.7-0.7-6.9c-0.8-1.7-2-3.1-3.4-4.3
		c-1.1-0.9-2.1-1.8-3.3-2.5c-0.9-0.6-1.9-1-2.9-1.5c-0.7-0.4-1.4-0.9-2-1.4c-1.9-1.7-3.9-3.1-6.3-4c-1.8-0.6-3.6-1-5.5-1.2
		c-0.7-0.1-1.2,0.2-1.5,0.8c-0.5,1-1.1,1.9-1.8,2.7c-0.1,0.1-0.2,0.3-0.5,0.3c-0.3-0.3,0-0.5,0.1-0.7c0.6-0.9,1.1-1.8,1.5-2.7
		c0.3-0.8,0.4-1.7,0.3-2.5c-0.1-0.9-0.6-1.6-1.5-1.9c-0.5-0.2-1-0.4-1.5-0.6c-1-0.4-1.6-1-2.1-1.9c0.2-0.2,0.3-0.1,0.5,0
		c1.3,1,2.8,1.7,4.4,1.8c1,0,2,0.2,3,0.4c1.1,0.2,2.1,0,3.1-0.1c1.8-0.2,3.7-0.3,5.5-0.7c2.1-0.5,4-1.2,5.7-2.6
		c1.7-1.5,2.6-3.5,3.2-5.6c0.2-0.9,0-1.7-0.1-2.6c0.7-0.1,1.3-0.5,2-0.7c0.5,0.4,0.4,1,0.4,1.6c0,1.4-0.4,2.8-0.8,4.2
		c-0.8,2.3-1.9,4.4-4.3,5.4c-0.2,0.1-0.3,0.2-0.5,0.3c-0.8,0.4-1.6,1-2.5,1.3c-0.5,0.1-0.8,0.5-0.8,0.9c-0.1,0.7-0.4,1.4-0.5,2.1
		c-0.3,1.3-0.2,2.4,0.8,3.4c1.1,1.1,2.2,2.1,3.8,2.6c2.5,0.9,5.4,0.5,7-2.2c1-1.6,1.8-3.2,2.6-4.8c0.7-1.3,1.5-2.6,2.1-4
		c0.8-1.7,1.5-3.3,2.4-5c0.9-1.7,1.6-3.5,2.1-5.3c0.3-1.1,0.1-2-0.4-2.9C120.6,52.8,120,52.5,119.7,51.9z M121.1,85.7
		c0.5,0,0.9,0,1.3-0.2c1.8-1,3.1-2.4,3.9-4.2c1.4-3.1,2.6-6.2,4.1-9.3c0.6-1.2,1.2-2.4,2.1-3.4c0.5-0.6,0.9-1.2,1.3-1.8
		c0.5-0.8,0.9-1.8,0.7-2.8c-0.5-2.1-1.6-3.8-3.7-4.7c-0.8-0.3-1.5-0.6-2.3-1c-1.3-0.6-2.6-0.7-4-0.6c-0.6,0-1,0.3-1.3,0.8
		c-0.2,0.4-0.5,0.7-0.6,1.1c-0.8,2.2-1.9,4.3-3,6.4c-1.5,2.7-2.9,5.4-4.5,8.1c-0.7,1.2-1.3,2.4-1.8,3.6c-0.7,2-0.1,3.8,1.2,5.3
		C116.3,84.9,118.6,85.5,121.1,85.7z M133.4,90c0.8,0,1.6,0,2.4-0.5c0.8-0.6,1.6-1.3,2.3-2.2c0.9-1.1,1.6-2.3,2.4-3.5
		c0.9-1.5,2.2-2.8,2.9-4.4c0.8-1.6,1.8-3.2,2.6-4.8c0.5-0.9,0.5-1.8,0.2-2.6c-0.7-1.6-1.8-3-3-4.3c-1.3-1.4-3-1.3-4.7-1.4
		c-0.9,0-1.7,0.4-2.4,1c-0.8,0.7-1.4,1.6-1.8,2.5c-1.5,3.2-3.4,6.2-4.5,9.7c-0.4,1.3-1.2,2.3-1.8,3.5c-1.4,2.8,0.1,5.7,2.6,6.6
		C131.3,90,132.3,90,133.4,90z"/>
	<path class="st2" d="M244.1,103.7c0.6-0.9,0.9-1.9,1.3-2.8c2.3-5.1,4.5-10.2,6.8-15.3c0.1-0.3,0.3-0.5,0.4-0.8
		c0.4-0.8,0.9-1.1,1.8-1.1c1,0.1,2.1,0,3.2,0c1.2,0,1.7,0.5,1.7,1.7c0,2.9,0,5.8,0,8.7c0,7.6,0,15.3,0,22.9c0,1.5-0.4,2-1.9,2
		c-1,0-2,0-3.1,0c-1.4,0-1.7-0.3-1.8-1.7c0-1.2,0-2.4,0-3.6c0-3.9,0-7.8,0-11.7c0-0.4,0.1-0.8-0.2-1.3c-0.6,1.6-1.3,3-1.9,4.4
		c-0.6,1.3-1.2,2.6-1.7,4c-0.4,1-0.9,1.8-1.2,2.8c-0.2,0.6-0.5,1.1-0.7,1.7c-0.2,0.6-0.8,0.9-1.4,1c-0.9,0-1.8,0-2.7,0
		c-0.7,0-1.1-0.5-1.3-1.1c-1-2.1-1.9-4.2-2.8-6.3c-0.8-1.7-1.5-3.4-2.2-5c-0.1-0.3-0.2-0.6-0.5-0.8c-0.3,0.3-0.2,0.6-0.2,0.9
		c0,4.7,0,9.5,0,14.2c0,0.3,0,0.5,0,0.8c0,1.6-0.2,1.8-1.8,1.8c-1,0-2,0-2.9,0c-1.6,0-1.8-0.2-1.8-1.8c0-5.5,0-11.1,0-16.6
		c0-4.9,0-9.9,0-14.8c0-0.3,0-0.7,0-1c0.1-0.6,0.4-1,1-1c1.5,0,2.9,0,4.4,0c0.6,0,0.9,0.5,1.1,1c0.9,1.9,1.7,3.8,2.5,5.7
		c1.9,4.2,3.7,8.5,5.6,12.7C243.7,103.2,243.8,103.5,244.1,103.7z"/>
	<path class="st2" d="M395.1,105.4c0-0.6,0-1,0-1.4c0-6,0-12,0-18.1c0-0.3,0-0.6,0-0.9c0.1-0.9,0.5-1.4,1.5-1.4c1.3,0,2.6,0,4,0
		c0.9,0,1.4,0.4,1.5,1.4c0,0.3,0,0.6,0,0.9c0,10.2,0,20.5,0,30.7c0,0.2,0,0.4,0,0.6c0,1.1-0.4,1.8-1.8,1.7c-1-0.1-2-0.1-3,0
		c-0.9,0-1.4-0.3-1.8-1c-2.5-4-5.1-8-7.6-12c-1.7-2.7-3.5-5.5-5.2-8.2c0,0-0.1-0.1-0.3-0.2c0,0.5,0,0.9,0,1.2c0,6,0,11.9,0,17.8
		c0,0.3,0,0.6,0,0.9c-0.1,0.9-0.5,1.4-1.5,1.4c-1.3,0-2.6,0-4,0c-1,0-1.2-0.3-1.4-1.2c0-0.3,0-0.7,0-1c0-10.2,0-20.5,0-30.7
		c0-0.1,0-0.3,0-0.5c0.1-1.5,0.4-1.8,1.9-1.8c1,0,2,0,2.9,0c0.8,0,1.3,0.3,1.7,1c4.1,6.5,8.2,13,12.3,19.5
		C394.3,104.5,394.5,104.9,395.1,105.4z"/>
	<path class="st2" d="M520.7,101.3c0-5.1,0-10.2,0-15.2c0-0.5,0-1,0.1-1.5c0.2-0.6,0.5-0.9,1.1-0.9c0.1,0,0.2,0,0.3,0
		c4.5,0,9,0,13.4,0c5.1,0.1,8.9,3.4,9.8,8.3c0.6,3.5,0,6.6-2.2,9.5c-0.7,0.9-1.7,1.5-2.6,2.1c-0.7,0.4-0.7,0.4-0.3,1.1
		c1.8,3.4,3.6,6.8,5.4,10.2c0.4,0.7,0.7,1.5,1.2,2.2c0.6,1,0,1.9-1.1,1.9c-1.5-0.1-3.1-0.1-4.6,0c-0.9,0-1.5-0.3-1.8-1.1
		c-1.9-3.8-3.8-7.6-5.7-11.4c-0.9-1.8-0.4-1.5-2.4-1.5c-0.7,0-1.4,0-2,0c-1.6,0-1.4-0.2-1.4,1.5c0,2.7,0,5.4,0,8.1
		c0,0.9,0,1.9,0,2.8c0,1.3-0.3,1.6-1.6,1.6s-2.6,0-3.8,0c-0.9,0-1.3-0.4-1.4-1.3c0-0.3,0-0.7,0-1
		C520.7,111.5,520.7,106.4,520.7,101.3z M531.9,98.4L531.9,98.4c1.1,0,2.3,0,3.4,0c1.4,0,2.4-0.8,2.9-2.1c0.5-1.3,0.5-2.7,0-4.1
		c-0.5-1.2-1.4-1.9-2.7-2c-2.4-0.1-4.8,0-7.2,0c-0.5,0-0.7,0.2-0.7,0.7c0,2.2,0,4.4,0,6.6c0,0.6,0.2,0.8,0.8,0.8
		C529.6,98.3,530.8,98.4,531.9,98.4z"/>
	<path class="st2" d="M291.8,101.3c0-5.1,0-10.2,0-15.2c0-0.5,0-1,0.1-1.5c0.1-0.6,0.5-0.9,1.1-0.9c0.2,0,0.4,0,0.6,0
		c4.3,0,8.6,0,12.9,0c2.2,0,4.3,0.6,6.1,1.9c2.7,1.9,3.9,4.5,4.1,7.7c0.3,3.1-0.5,5.9-2.5,8.3c-0.7,0.8-1.6,1.4-2.4,2
		c-0.8,0.5-0.8,0.5-0.4,1.3c1,1.9,2,3.9,3,5.8c1.1,2.2,2.3,4.3,3.4,6.5c0.6,1.1,0.2,1.9-1.1,1.9c-1.5,0-3.1,0-4.6,0
		c-0.9,0-1.5-0.3-1.9-1.1c-1.9-3.8-3.8-7.6-5.7-11.4c-0.9-1.8-0.4-1.5-2.4-1.5c-0.9,0-1.8,0-2.7,0c-0.6,0-0.8,0.2-0.8,0.8
		c0,1,0,2,0,2.9c0,2.8,0,5.6,0,8.5c0,1.5-0.3,1.8-1.9,1.8c-1.1,0-2.3,0-3.4,0c-1.2,0-1.6-0.4-1.6-1.6c0-0.6,0-1.1,0-1.7
		C291.8,110.8,291.8,106.1,291.8,101.3z M303,98.4L303,98.4c1.1,0,2.3,0,3.4,0c1.4,0,2.5-0.8,3-2.1c0.4-1.2,0.4-2.4,0.1-3.7
		c-0.3-1.4-1.8-2.4-3.2-2.4c-2.2,0.1-4.4,0-6.6,0c-0.8,0-0.9,0-0.9,0.8c0,2.2,0,4.4,0,6.5c0,0.8,0,0.8,0.9,0.8
		C300.7,98.4,301.9,98.4,303,98.4z"/>
	<path class="st2" d="M230.5,60c0-5.2,0-10.5,0-15.7c0-0.4-0.1-0.8,0.1-1.2c0.3-0.5,0.7-0.7,1.3-0.7c4.5,0,9-0.1,13.4,0
		c3.6,0.1,6.5,1.6,8.5,4.7c0.7,1.2,1.2,2.5,1.4,3.9c0.5,3.4-0.1,6.5-2.4,9.2c-0.7,0.9-1.6,1.5-2.5,2c-0.7,0.4-0.8,0.4-0.4,1.2
		c1.7,3.2,3.4,6.4,5,9.6c0.5,0.9,1,1.8,1.4,2.7c0.6,1.1,0.2,2-1.1,2c-1.6,0.1-3.2,0-4.9,0c-0.7,0-1.1-0.3-1.4-0.9
		c-0.6-1.2-1.2-2.5-1.9-3.7c-1.5-2.9-2.9-5.7-4.3-8.6c-0.3-0.6-0.6-0.9-1.3-0.8c-1.1,0-2.3,0-3.4,0c-0.9,0-0.9,0-0.9,1
		c0,3.5,0,6.9,0,10.4c0,0.5,0,0.9,0,1.4c0,0.9-0.4,1.3-1.2,1.3c-1.4,0.1-2.8,0.1-4.2,0c-0.9,0-1.4-0.6-1.4-1.7c0-4.1,0-8.1,0-12.2
		C230.5,62.6,230.5,61.3,230.5,60z M241.6,48.9c-1.2,0-2.4,0-3.6,0c-0.5,0-0.7,0.2-0.7,0.7c0,2.3,0,4.5,0,6.8c0,0.6,0.2,0.8,0.8,0.8
		c2.3,0,4.6,0,6.9,0c1.7-0.1,2.9-1.1,3.2-2.8c0.2-0.9,0.2-1.8,0-2.7c-0.4-1.8-1.6-2.8-3.5-2.8C243.7,48.9,242.7,48.9,241.6,48.9z"/>
	<path class="st2" d="M407,101.3c0-5.2,0-10.4,0-15.6c0-0.3,0-0.7,0-1c0.1-0.6,0.4-1,1-1c0.2,0,0.5,0,0.7,0c3.7,0,7.4,0,11.1,0
		c1.8,0,3.4,0.4,5,1c3.7,1.4,5.9,4,6.9,7.7c0.3,1.3,0.5,2.6,0.5,3.9c0,3.5,0,6.9,0,10.4c0,2.4-0.6,4.6-1.9,6.6
		c-1.5,2.5-3.7,4-6.4,4.8c-1.7,0.5-3.5,0.8-5.3,0.8c-3.2,0-6.5,0-9.7,0c-0.3,0-0.5,0-0.8,0c-0.7-0.1-1-0.4-1.1-1c0-0.3,0-0.7,0-1
		C407,111.7,407,106.5,407,101.3z M413.8,101.3c0,3.4,0,6.8,0,10.1c0,0.9,0,0.9,0.9,0.9c1.6,0,3.2,0,4.7,0c0.8,0,1.6-0.2,2.4-0.5
		c2.1-0.8,3.4-2.4,3.4-4.6c0.1-4,0.1-8,0-12c0-1.8-0.9-3.1-2.4-4.1c-1.1-0.7-2.3-1-3.5-1c-1.4,0-2.8,0-4.2,0c-1.4,0-1.3-0.1-1.3,1.3
		C413.8,94.8,413.8,98,413.8,101.3z"/>
	<path class="st2" d="M488.5,101.4c0,1.6,0,3.3,0,5c0,1.5-0.5,3-0.8,4.5c-0.4,1.5-1.2,2.7-2,3.9c-0.8,1-1.9,1.8-3,2.5
		c-2,1-4,1.6-6.2,1.7c-3.8,0.1-7.7,0-11.5,0c-1.2,0-1.6-0.4-1.6-1.6c0-10.7,0-21.4,0-32c0-1.2,0.4-1.6,1.6-1.6c3.8,0,7.6-0.1,11.4,0
		c3,0.1,5.8,0.9,8.1,2.9c1.4,1.2,2.5,2.7,3.1,4.5c0.4,1.2,0.5,2.5,1,3.6c0.1,0.3,0.1,0.7,0.1,1C488.5,97.6,488.5,99.5,488.5,101.4
		L488.5,101.4z M470.1,101.3c0,3.2,0,6.5,0,9.7c0,0.3,0,0.5,0,0.8c0,0.4,0.2,0.6,0.6,0.6c1.8,0,3.7,0.1,5.5-0.1
		c3.5-0.3,5.4-2.7,5.4-5.7c0-3.7,0-7.4,0-11.1c0-2.5-1.7-4.4-4.1-5.1c-0.6-0.2-1.3-0.3-2-0.3c-1.5,0-2.9,0-4.4,0c-1,0-1,0-1,1
		C470.1,94.6,470.1,97.9,470.1,101.3z"/>
	<path class="st2" d="M277.2,57.7c1.7,0,3.5,0,5.2,0c1.1,0,1.6,0.4,1.6,1.4c0,3.3,0.2,6.5-0.6,9.8c-1.4,5.5-5.8,9-11.4,9.2
		c-3.1,0.1-6-0.5-8.6-2.4c-2.2-1.6-3.5-3.7-4.3-6.2c-0.5-1.6-0.6-3.2-0.6-4.9c0-2.8,0-5.6,0-8.5c0-2.1,0.2-4.2,1-6.2
		c1.5-3.8,4.1-6.4,8.2-7.4c3.8-1,7.3-0.5,10.6,1.6c3,2,4.6,4.9,5.4,8.3c0.2,1-0.2,1.6-1.3,1.6c-1.4,0-2.9,0-4.3,0
		c-1,0-1.2-0.2-1.6-1.1c-0.4-1.1-0.9-2-1.7-2.8c-2-2-6.8-2-8.4,1.3c-0.6,1.3-0.9,2.6-0.9,4c0,3.2,0,6.5,0,9.7c0,1.8,0.4,3.4,1.8,4.7
		c0.9,0.8,2,1.3,3.3,1.4c0.3,0,0.7,0,1,0c3,0.2,5.1-2.1,5.4-4.9c0-0.3,0.1-0.7,0.1-1c0.1-0.9,0-1.1-0.9-1.1c-1.3,0-2.6,0-3.8,0
		c-0.3,0-0.5,0-0.8,0c-0.8-0.1-1.1-0.4-1.1-1.1c0-1.4,0-2.8,0-4.2c0-0.9,0.5-1.2,1.5-1.3C273.6,57.7,275.4,57.7,277.2,57.7z"/>
	<path class="st2" d="M342.6,60.1c0-5.1,0-10.3,0-15.5c0-0.3,0-0.5,0-0.8c-0.1-0.9,0.3-1.4,1.3-1.5c1.4-0.1,2.7-0.1,4.1,0
		c1.1,0.1,1.4,0.5,1.4,1.8c0,3.5,0,7,0,10.5c0,0.4,0,0.8,0,1.2c0,1.1,0,1.1,1.1,1.1c3.3,0,6.5,0,9.8,0c1,0,1,0,1.1-1
		c0-3.9,0-7.8,0-11.6c0-0.3,0-0.7,0-1c0.1-0.5,0.4-0.8,1-0.8c1.5,0,3,0,4.5,0c0.8,0,1.2,0.5,1.3,1.2c0,0.2,0,0.4,0,0.6
		c0,10.5,0,21,0,31.5c0,0.6,0.1,1.2-0.6,1.6c-0.3,0.2-0.6,0.3-0.9,0.3c-1.3,0-2.6,0-3.8,0c-1.1,0-1.5-0.4-1.5-1.5c0-3.5,0-7,0-10.5
		c0-0.3,0-0.6,0-0.9c0-1.2,0-1.2-1.2-1.2c-2,0-4.1,0-6.1,0c-1.2,0-2.3,0-3.5,0c-1.2,0-1.2,0-1.2,1.1c0,3.6,0,7.2,0,10.8
		c0,0.3,0,0.6,0,0.9c-0.1,0.8-0.5,1.2-1.3,1.3c-1.4,0-2.8,0-4.2,0c-0.8,0-1.2-0.4-1.3-1.3c0-0.3,0-0.6,0-0.9
		C342.6,70.4,342.6,65.3,342.6,60.1z"/>
	<path class="st2" d="M226.7,60.1c0,1.6,0.1,3.2,0,4.9c-0.1,2.9-0.8,5.6-2.4,8.1c-1.4,2.1-3.4,3.5-5.8,4.3c-3,1-6.1,1-9.1,0
		c-3.8-1.3-6.3-4-7.5-7.9c-0.5-1.6-0.7-3.3-0.7-5c0-3.2,0-6.5,0-9.7c0.1-2.6,0.7-5.1,2.2-7.4c1.8-2.7,4.2-4.3,7.4-5
		c4.4-0.9,8.4-0.2,11.8,2.8c1.7,1.5,2.8,3.4,3.4,5.6c0.5,1.7,0.7,3.5,0.7,5.3C226.6,57.5,226.7,58.8,226.7,60.1z M208.2,60.1
		C208.2,60.1,208.2,60.1,208.2,60.1c0,1.9-0.1,3.9,0,5.8c0.4,4.7,4.3,6.4,8.1,5c2.2-0.8,3.3-2.8,3.4-5.1c0.1-3.8,0.1-7.7,0-11.5
		c-0.1-2.4-1.6-4.5-3.7-5.2c-2.4-0.7-4.8-0.3-6.4,1.6c-0.9,1.1-1.4,2.3-1.4,3.7C208.1,56.4,208.2,58.2,208.2,60.1z"/>
	<path class="st2" d="M321.4,101.3c0-5.2,0-10.3,0-15.5c0-0.3,0-0.5,0-0.8c0.1-1,0.4-1.3,1.4-1.4c0.2,0,0.5,0,0.7,0
		c6.4,0,12.9,0,19.3,0c0.3,0,0.5,0,0.8,0c0.8,0.1,1.2,0.5,1.2,1.3c0,1.3,0,2.6,0,4c0,0.8-0.5,1.2-1.3,1.3c-0.3,0-0.6,0-0.9,0
		c-4.4,0-8.7,0-13.1,0c-0.3,0-0.5,0-0.8,0c-0.4,0-0.6,0.2-0.6,0.6c0,2.2,0,4.4,0,6.7c0,0.4,0.1,0.6,0.6,0.6c0.3,0,0.7,0,1,0
		c3.6,0,7.1,0,10.7,0c1.5,0,1.8,0.4,1.9,1.9c0,1,0,2,0,3c0,1.2-0.5,1.6-1.6,1.6c-3.6,0-7.3,0-11,0c-0.3,0-0.5,0-0.8,0
		c-0.6,0-0.8,0.2-0.8,0.8c0,1.7,0,3.4,0,5.1c0,1.8,0,1.8,1.9,1.8c4.2,0,8.4,0,12.5,0c0.3,0,0.7,0,1,0c0.8,0.1,1.2,0.5,1.2,1.2
		c0,1.4,0,2.8,0,4.2c0,0.7-0.4,1.1-1.1,1.1c-0.3,0-0.6,0-0.9,0c-6.4,0-12.9,0-19.3,0c-0.3,0-0.5,0-0.8,0c-0.9-0.1-1.2-0.4-1.3-1.3
		c0-0.3,0-0.6,0-0.9C321.4,111.6,321.4,106.4,321.4,101.3z"/>
	<path class="st2" d="M201.9,101.2c0-5.1,0-10.2,0-15.4c0-0.3,0-0.6,0-0.9c0.1-0.9,0.4-1.3,1.4-1.3c0.2,0,0.4,0,0.7,0
		c6.5,0,12.9,0,19.4,0c0.3,0,0.5,0,0.8,0c0.8,0.1,1.2,0.5,1.2,1.2c0,1.4,0,2.7,0,4.1c0,0.7-0.5,1.2-1.2,1.2c-0.3,0-0.7,0-1,0
		c-4.2,0-8.5,0-12.8,0c-0.2,0-0.4,0-0.7,0c-1,0-1,0-1,1c0,2,0,3.9,0,5.9c0,1,0,1,1.1,1c3.6,0,7.2,0,10.8,0c2,0,2.2,0.2,2.2,2.3
		c0,0.9,0,1.7,0,2.6c0,1.3-0.4,1.7-1.7,1.7c-3.6,0-7.3,0-10.9,0c-0.3,0-0.5,0-0.8,0c-0.5,0-0.7,0.2-0.7,0.7c0,2.1,0,4.1,0,6.2
		c0,0.6,0.2,0.8,0.8,0.8c1.5,0,2.9,0,4.4,0c3.2,0,6.4,0,9.6,0c0.4,0,0.8,0,1.2,0.2c0.5,0.3,0.7,0.7,0.7,1.2c0,1.2,0,2.5,0,3.7
		c0,1-0.4,1.4-1.4,1.4c-2.1,0-4.1,0-6.2,0c-4.6,0-9.1,0-13.7,0c-0.3,0-0.6,0-0.9,0c-0.8-0.1-1.1-0.4-1.2-1.2c0-0.3,0-0.6,0-0.9
		C201.9,111.6,201.9,106.4,201.9,101.2z"/>
	<path class="st2" d="M491.5,101.3c0-1.8,0-3.5,0-5.3c0-3.1,0.9-5.9,2.9-8.4c1.1-1.4,2.5-2.5,4.2-3.2c3.8-1.6,7.5-1.6,11.3,0
		c3.9,1.7,6,4.9,6.8,9c0.2,1.1,0.3,2.2,0.3,3.4c0,3.2,0,6.3,0,9.5c0,2.8-0.7,5.4-2.2,7.7c-1.9,2.9-4.7,4.5-8,5.1
		c-2.3,0.4-4.6,0.2-6.9-0.5c-4.1-1.4-6.5-4.3-7.7-8.3c-0.4-1.3-0.5-2.6-0.5-3.9C491.5,104.7,491.5,103,491.5,101.3L491.5,101.3z
		 M498.3,101.2L498.3,101.2c0,1.8,0,3.6,0,5.4c0,0.5,0.1,0.9,0.2,1.3c0.4,2.4,2,4.1,4.4,4.5c2.5,0.5,4.8-0.4,6-2.4
		c0.8-1.4,1-2.8,1-4.3c0-2.9,0-5.9,0-8.8c0-1.4-0.1-2.8-0.8-4c-1.1-1.9-2.7-2.9-4.9-2.9c-2.2,0-4,0.8-5.1,2.8
		c-0.6,1.1-0.8,2.3-0.8,3.6C498.3,98,498.3,99.6,498.3,101.2z"/>
	<path class="st2" d="M398,60.1c0,2,0.1,4,0,6c-0.2,3-1.2,5.8-3.2,8.1c-2.1,2.3-4.7,3.5-7.7,3.8c-2.3,0.2-4.5,0.1-6.7-0.8
		c-4.1-1.7-6.5-4.8-7.4-9.1c-0.1-0.6-0.3-1.2-0.3-1.9c0-4.1-0.1-8.2,0-12.3c0.1-3.3,1.3-6.1,3.7-8.5c2-2,4.6-3,7.4-3.3
		c1.9-0.2,3.8-0.1,5.7,0.5c4.3,1.4,6.9,4.3,8,8.5c0.4,1.3,0.5,2.6,0.5,4C398,56.9,398,58.5,398,60.1C398,60.1,398,60.1,398,60.1z
		 M379.5,60.1c0,1.4,0,2.9,0,4.3c0,0.8,0,1.6,0.2,2.4c0.5,2.2,1.6,3.8,3.9,4.4c0.8,0.2,1.6,0.2,2.5,0.1c1.9-0.1,3.2-1,4.2-2.6
		c0.7-1.2,0.9-2.6,0.9-3.9c0-3.6,0.2-7.2-0.1-10.8c-0.2-2.1-1.2-3.7-3.2-4.7c-1-0.5-2-0.4-3-0.4c-2.1,0-3.5,1-4.5,2.9
		c-0.6,1-0.8,2.2-0.8,3.4C379.4,56.8,379.5,58.4,379.5,60.1z"/>
	<path class="st2" d="M348.4,101.2c0-5.1,0-10.3,0-15.5c0-0.3,0-0.7,0-1c0.1-0.6,0.4-0.9,1-1c0.3,0,0.5,0,0.8,0c6.6,0,13.2,0,19.8,0
		c0.2,0,0.5,0,0.7,0c0.7,0.1,1,0.4,1.1,1.1c0,1.4,0,2.9,0,4.3c0,0.7-0.4,1.1-1.1,1.2c-0.3,0-0.7,0-1,0c-4.3,0-8.7,0-13,0
		c-0.3,0-0.5,0-0.8,0c-0.4,0-0.6,0.2-0.6,0.6c0,2.2,0,4.4,0,6.7c0,0.6,0.3,0.6,0.8,0.6c2.7,0,5.3,0,8,0c1.2,0,2.5,0,3.7,0
		c1.1,0,1.5,0.4,1.5,1.5c0,1.2,0,2.3,0,3.5c0,1.2-0.3,1.5-1.5,1.6c-1.8,0-3.5,0-5.3,0c-2.1,0-4.2,0-6.3,0c-0.9,0-0.9,0-0.9,0.9
		c0,2,0,3.9,0,5.9c0,0.9,0,0.9,1,0.9c4.4,0,8.8,0,13.2,0c0.3,0,0.6,0,0.9,0c1,0,1.4,0.4,1.5,1.4c0,1.3,0,2.6,0,3.8
		c0,0.9-0.3,1.2-1.2,1.3c-0.3,0-0.6,0-0.9,0c-6.4,0-12.7,0-19.1,0c-0.2,0-0.4,0-0.6,0c-1.3,0-1.6-0.3-1.6-1.6
		C348.4,111.9,348.4,106.6,348.4,101.2z"/>
	<path class="st2" d="M436.3,101.2c0-5.1,0-10.3,0-15.5c0-0.3,0-0.7,0-1c0.1-0.6,0.4-0.9,1-1c0.3,0,0.6,0,0.9,0c6.5,0,13,0,19.5,0
		c0.3,0,0.5,0,0.8,0c0.7,0.1,1,0.4,1.1,1.1c0,1.4,0,2.9,0,4.3c0,0.7-0.4,1.1-1.1,1.2c-0.3,0-0.7,0-1,0c-4.3,0-8.7,0-13,0
		c-0.3,0-0.5,0-0.8,0c-0.4,0-0.6,0.2-0.6,0.6c0,2.3,0,4.5,0,6.8c0,0.4,0.2,0.5,0.6,0.5c0.3,0,0.5,0,0.8,0c3.5,0,7.1,0,10.6,0
		c0.3,0,0.7,0,1,0c0.6,0.1,1,0.4,1,1c0,1.5,0,3,0,4.5c0,0.6-0.4,0.9-0.9,1c-0.3,0.1-0.7,0-1,0c-3.5,0-7.1,0-10.6,0
		c-0.2,0-0.5,0-0.7,0c-0.6-0.1-0.8,0.2-0.8,0.8c0,1.6,0,3.2,0,4.9c0,0.6-0.3,1.4,0.1,1.9c0.5,0.5,1.3,0.2,1.9,0.2
		c4.1,0,8.2,0,12.3,0c0.3,0,0.7,0,1,0c0.7,0.1,1.1,0.5,1.1,1.2c0,1.4,0,2.9,0,4.3c0,0.6-0.4,1-1,1c-0.3,0-0.7,0-1,0
		c-6.4,0-12.9,0-19.3,0c-0.1,0-0.3,0-0.5,0c-1.3,0-1.6-0.3-1.6-1.6C436.3,111.9,436.3,106.6,436.3,101.2z"/>
	<path class="st2" d="M305.6,56c0-4.2,0-7.7,0-11.2c0-0.3,0-0.5,0-0.8c0.1-1.2,0.3-1.4,1.5-1.4c1.4,0,2.7,0.1,4.1-0.1
		c0.6-0.1,1.2,0.8,1.3,1.3c0,0.3,0,0.5,0,0.8c0,6.7,0,13.3,0,20c0,0.8-0.1,1.6-0.3,2.4c-0.2,0.8-0.4,1.6-0.5,2.4
		c-0.2,1.1-0.8,2.1-1.1,3.1c-0.1,0.4-0.5,0.6-0.7,0.9c-1.6,2.4-3.9,3.8-6.6,4.3c-3.1,0.6-6.2,0.6-9.2-0.6c-3.3-1.4-5.4-3.9-6.4-7.3
		c-0.5-1.7-0.7-3.5-0.7-5.2c0-6.7,0-13.4,0-20.1c0-0.2,0-0.5,0-0.7c0-0.8,0.4-1.3,1.2-1.3c1.4-0.1,2.9-0.1,4.3,0
		c0.9,0,1.2,0.5,1.3,1.4c0,2,0,4,0,6c0,4.8,0,9.6,0,14.5c0,1.2,0.1,2.3,0.4,3.5c0.6,2.1,2.4,3.5,4.6,3.5c1.2,0,2.4,0.2,3.6-0.4
		c2-0.9,3-2.6,3.1-4.7C305.7,62.6,305.6,58.9,305.6,56z"/>
	<path class="st2" d="M264.2,101.3c0-5.2,0-10.3,0-15.5c0-0.3,0-0.6,0-0.9c0.1-0.8,0.4-1.2,1.3-1.3c0.1,0,0.3,0,0.5,0
		c4.2,0,8.4,0,12.6,0c2.1,0,4.1,0.6,5.9,1.8c2.6,1.7,4,4.2,4.5,7.2c0.4,2.5,0.2,5-0.8,7.3c-1.2,2.8-3.4,4.7-6.3,5.6
		c-1.1,0.4-2.3,0.5-3.6,0.5c-2,0-4,0-6,0c-1.3,0-1.3,0-1.3,1.3c0,3.2,0,6.3,0,9.5c0,0.3,0,0.5,0,0.8c0,0.9-0.3,1.3-1.2,1.3
		c-1.5,0-2.9,0-4.4,0c-0.7,0-1.1-0.4-1.2-1.1c0-0.3,0-0.6,0-0.9C264.2,111.7,264.2,106.5,264.2,101.3z M271,94.9c0,1.3,0,2.6,0,3.8
		c0,0.6,0.2,0.8,0.8,0.8c2.2,0,4.4,0,6.5,0c1.5,0,3.1-1,3.6-2.7c0.4-1.4,0.4-2.7-0.1-4.1c-0.6-1.5-1.8-2.4-3.4-2.5
		c-2.2,0-4.4,0-6.5,0c-0.8,0-0.8,0-0.8,0.8C271,92.3,271,93.6,271,94.9z"/>
	<path class="st2" d="M316.6,60c0-5.2,0-10.5,0-15.7c0-1.5,0.4-1.9,1.9-1.9c1,0,2,0,3,0c1.4,0,1.8,0.4,1.8,1.8c0,8.5,0,16.9,0,25.4
		c0,1.6-0.1,1.5,1.4,1.5c4.2,0,8.4,0,12.6,0c0.5,0,1,0,1.5,0.1c0.8,0.2,1.1,0.5,1.1,1.2c0,1.4,0,2.8,0,4.2c0,0.7-0.5,1.1-1.1,1.2
		c-0.3,0-0.5,0-0.8,0c-6.5,0-13,0-19.5,0c-0.3,0-0.7,0-1,0c-0.5-0.2-0.9-0.5-0.9-1.1c0-0.3,0-0.6,0-0.9
		C316.6,70.5,316.6,65.2,316.6,60z"/>
	<path class="st2" d="M22.1,107.7c0.7,0,1.1,0.3,1.2,0.8c0.1,0.5-0.2,1.1-0.6,1.3c-0.7,0.3-1.4,0.5-2.1,0.7
		c-0.4,0.1-0.7-0.2-0.9-0.5c-0.2-0.2-0.2-0.5,0-0.7C20.2,108.4,21,107.8,22.1,107.7z"/>
	<path class="st2" d="M175.8,64.7c0.1-0.3,0.2-0.6,0.2-0.9c0.2-1.2,1.2-1.6,2.3-1c0.4,0.2,0.7,0.4,1,0.7c0.4,0.3,0.4,0.6,0,0.9
		c-0.4,0.3-1,0.4-1.5,0.4c-0.6,0-1.3,0.1-1.9,0.1C175.9,64.7,175.9,64.7,175.8,64.7z"/>
	<path class="st2" d="M165.3,64.5c0-0.6,0.3-1,0.9-0.9c0.6,0.1,1.2,0.2,1.9,0.2c0.3,0,0.6,0.1,0.7,0.5c0.1,0.4-0.2,0.4-0.4,0.5
		c-0.5,0.2-1.1,0.5-1.6,0.7C165.9,65.8,165.3,65.3,165.3,64.5z"/>
	<path class="st2" d="M27.3,100.2c-0.6,1.7-2.2,3-3.9,3.2c1.1-1.4,2.5-2.4,3.8-3.3C27.2,100.2,27.2,100.2,27.3,100.2z"/>
	<path class="st2" d="M17.4,93.6c0.9-0.3,1.7-0.9,2.7-1.1c-0.4,1-1.3,1.8-2.3,1.8C17.4,94.3,17.1,94.1,17.4,93.6z"/>
	<path class="st2" d="M27.4,94.5c-0.2,0.4-0.7,0.5-1.1,0.9C26.6,94.7,26.6,94.7,27.4,94.5C27.4,94.5,27.4,94.5,27.4,94.5z"/>
	<path class="st2" d="M35.8,145.6c-0.2,0.4-0.5,0.4-0.9,0.5C35.1,145.7,35.4,145.5,35.8,145.6z"/>
	<path class="st2" d="M27.4,99.9c0.1-0.3,0.2-0.5,0.5-0.4c0,0,0.1,0,0.1,0.1c0,0.3-0.2,0.4-0.5,0.5C27.5,100,27.4,99.9,27.4,99.9z"
		/>
	<path class="st2" d="M84.7,77.1c0.1-0.3,0.2-0.5,0.5-0.6C85.2,76.9,85,77,84.7,77.1z"/>
	<path class="st2" d="M38.5,140.2c0,0.1-0.1,0.1-0.1,0.1C38.3,140.2,38.4,140.1,38.5,140.2C38.4,140.1,38.5,140.2,38.5,140.2z"/>
	<path class="st2" d="M27.1,100.1c0.1-0.1,0.2-0.1,0.2-0.2c0,0,0.1,0.1,0.1,0.1c-0.1,0.1-0.2,0.1-0.2,0.2
		C27.2,100.2,27.2,100.2,27.1,100.1z"/>
</g>
</svg>
